<?xml version="1.0" encoding="iso-8859-1"?>
<!-- Generator: Adobe Illustrator 22.0.1, SVG Export Plug-In . SVG Version: 6.00 Build 0)  -->
<svg version="1.1" id="Layer_1" xmlns="http://www.w3.org/2000/svg" xmlns:xlink="http://www.w3.org/1999/xlink" x="0px" y="0px"
	 viewBox="0 0 200 200" style="enable-background:new 0 0 200 200;" xml:space="preserve">
<g>
	<g>
		<path style="fill:#57B6B2;" d="M195.636,149.557c0.079,0.245,0.158,0.486,0.231,0.731c0.44,1.455,0.816,2.928,1.077,4.421
			l-3.317-3.324l-24.344-24.393l17.502-17.538c0,0.034,0,0.128,0.003,0.179c0,0.055,0,0.083,0,0.155c0,0.134,0.007,0.303,0.01,0.507
			c0.003,0.11,0.003,0.203,0.007,0.331c0.007,0.207,0.014,0.445,0.024,0.697c0.007,0.166,0.01,0.317,0.017,0.503
			c0.01,0.266,0.024,0.555,0.041,0.859c0.01,0.221,0.021,0.428,0.034,0.666c0.017,0.317,0.041,0.659,0.062,1.003
			c0.017,0.276,0.034,0.538,0.055,0.831c0.028,0.362,0.058,0.752,0.089,1.141c0.024,0.307,0.048,0.603,0.079,0.928
			c0.038,0.414,0.083,0.848,0.127,1.286c0.034,0.345,0.069,0.679,0.107,1.038c0.048,0.445,0.107,0.91,0.165,1.376
			c0.045,0.376,0.089,0.745,0.141,1.131c0.065,0.483,0.138,0.983,0.213,1.479c0.058,0.397,0.11,0.786,0.175,1.197
			c0.079,0.51,0.172,1.031,0.265,1.555c0.072,0.417,0.138,0.828,0.217,1.255c0.1,0.538,0.213,1.086,0.323,1.634
			c0.086,0.421,0.165,0.838,0.255,1.262c0.124,0.569,0.265,1.145,0.399,1.721c0.1,0.417,0.189,0.831,0.296,1.248
			c0.148,0.59,0.317,1.183,0.482,1.776c0.114,0.407,0.217,0.817,0.334,1.224c0.186,0.631,0.392,1.259,0.595,1.886
			c0.12,0.369,0.227,0.741,0.354,1.11c0.234,0.683,0.492,1.359,0.747,2.034c0.117,0.31,0.224,0.624,0.344,0.934
			c0.389,0.979,0.802,1.948,1.242,2.9C194.632,146.695,195.165,148.115,195.636,149.557z"/>
		<polygon style="fill:#57B6B2;" points="164.421,122.116 125.923,83.544 186.789,83.544 186.789,99.706 		"/>
		<path style="fill:#57B6B2;" d="M121.405,104.902V88.765l75.932,76.092c-0.296,3.107-0.929,5.738-1.552,7.721
			c-0.63,1.972-1.232,3.248-1.442,3.669c-0.031,0.055-0.072,0.138-0.093,0.172c-0.107,0.162-0.234,0.366-0.382,0.617
			c-2.161,3.628-6.156,6.086-11.921,7.317c-0.117,0.024-0.258,0.038-0.379,0.062c-1.043,0.21-2.123,0.397-3.276,0.528
			c-2.588,0.297-5.461,0.393-8.614,0.29c-2.374-0.069-4.77-0.186-7.206-0.331c-0.141-0.007-0.279-0.017-0.423-0.024
			c-1.094-0.066-2.233-0.145-3.348-0.221l-58.23-58.344l8.008-2.921C116.208,120.574,121.405,113.144,121.405,104.902z"/>
		<path style="fill:#57B6B2;" d="M141.805,183.601c-0.072-0.003-0.148-0.007-0.22-0.01c-9.935-0.469-20.816-0.503-33.373,0.886
			c-0.045,0.003-0.093,0.01-0.141,0.017c-4.914,0.548-10.093,1.321-15.568,2.369c-0.124,0.024-0.241,0.038-0.365,0.062
			l-42.138-42.223l25.727-9.376l17.1-6.231l54.709,54.82C145.662,183.797,143.746,183.694,141.805,183.601z"/>
		<path style="fill:#57B6B2;" d="M80.35,189.515c-12.671,3.007-24.695,5.862-34.657,3.469v-42.844l38.415,38.492
			c-0.21,0.048-0.41,0.09-0.619,0.138L80.35,189.515z"/>
	</g>
	<path style="fill:#007078;" d="M199.935,162.604l0.065-1.2l-0.021-0.021c0.014-0.672,0-1.362-0.017-2.062l0.034-0.034l-0.065-1.062
		c-0.072-1.403-0.224-2.848-0.444-4.328c-0.038-0.262-0.086-0.517-0.127-0.779c-0.165-0.986-0.368-1.983-0.609-2.993
		c-0.079-0.338-0.158-0.676-0.244-1.014c-0.248-0.941-0.544-1.897-0.867-2.855c-0.107-0.314-0.196-0.631-0.306-0.945
		c-0.44-1.221-0.933-2.452-1.507-3.693c-6.47-13.983-6.562-32.841-6.562-33.03v-6.814v-9.752V75.861V41.379h-6.883V0h-65.384v41.379
		h-6.883v29.955v4.528v5.224v23.034c0,5.355-3.372,10.179-8.393,12.01l-11.532,4.2l0,0l-51.048,18.603l0,0l-4.732,1.724v7.621
		l-19.811,0.003c-0.895-0.045-8.706-0.131-12.602,5.076c-1.542,2.065-2.984,5.727-1.105,11.479
		c2.636,8.055,15.183,19.879,33.511,26.696v5.738l2.34,0.79c4.085,1.383,8.345,1.941,12.757,1.941
		c8.827,0,18.249-2.234,28.033-4.559l3.125-0.741c1.82-0.428,3.603-0.821,5.362-1.19l0.372-0.076
		c0.41-0.086,0.805-0.155,1.211-0.234c9.656-1.934,18.387-2.976,26.405-3.448c0.028,0,0.058-0.003,0.089-0.007
		c2.65-0.155,5.22-0.248,7.726-0.293c0.086,0,0.172-0.003,0.258-0.007c2.471-0.041,4.876-0.034,7.223,0.003
		c0.096,0,0.189,0.003,0.286,0.003c2.347,0.045,4.642,0.121,6.879,0.221c0.055,0.003,0.11,0.003,0.165,0.007
		c4.573,0.207,8.944,0.51,13.17,0.8l11.17,0.769l-0.079-0.079c1.411,0.069,2.801,0.128,4.185,0.166
		c0.791,0.021,1.562,0.034,2.313,0.034c0.392,0,0.74-0.024,1.118-0.028c0.458-0.007,0.908-0.021,1.352-0.034
		c0.888-0.031,1.741-0.076,2.567-0.138c0.306-0.024,0.609-0.048,0.905-0.076c0.902-0.083,1.765-0.179,2.595-0.297
		c0.2-0.028,0.399-0.055,0.592-0.086c0.878-0.134,1.714-0.286,2.512-0.452c0.131-0.028,0.262-0.055,0.389-0.083
		c0.826-0.183,1.611-0.383,2.354-0.597c0.086-0.024,0.172-0.048,0.258-0.072c0.757-0.224,1.473-0.465,2.147-0.717
		c0.062-0.024,0.124-0.045,0.182-0.066c0.681-0.262,1.321-0.531,1.92-0.814c0.041-0.021,0.086-0.038,0.127-0.059
		c0.602-0.286,1.163-0.583,1.69-0.883c0.034-0.021,0.072-0.038,0.107-0.059c0.52-0.303,1.005-0.61,1.456-0.924
		c0.031-0.021,0.062-0.041,0.093-0.062c0.44-0.31,0.847-0.617,1.225-0.931c0.034-0.028,0.069-0.055,0.1-0.079
		c0.365-0.303,0.699-0.603,1.008-0.903c0.034-0.034,0.076-0.069,0.11-0.1c0.296-0.29,0.564-0.576,0.816-0.855
		c0.038-0.041,0.079-0.083,0.114-0.121c0.237-0.269,0.451-0.531,0.65-0.786c0.034-0.045,0.079-0.093,0.114-0.138
		c0.186-0.245,0.351-0.476,0.506-0.7c0.034-0.048,0.076-0.1,0.107-0.148c0.148-0.217,0.275-0.414,0.396-0.607
		c0.028-0.045,0.065-0.097,0.093-0.141c0.141-0.228,0.265-0.438,0.375-0.621l0.189-0.314c0.148-0.221,0.323-0.524,0.509-0.872
		c0.014-0.028,0.028-0.059,0.041-0.083C197.464,175.942,199.58,170.128,199.935,162.604z M191.228,148.773
		c0.079,0.245,0.158,0.486,0.231,0.731c0.44,1.455,0.816,2.928,1.077,4.421l-3.317-3.324l-24.344-24.393l17.502-17.538
		c0,0.034,0,0.128,0.003,0.179c0,0.055,0,0.083,0,0.155c0,0.134,0.007,0.303,0.01,0.507c0.003,0.11,0.003,0.203,0.007,0.331
		c0.007,0.207,0.014,0.445,0.024,0.697c0.007,0.166,0.01,0.317,0.017,0.503c0.01,0.266,0.024,0.555,0.041,0.859
		c0.01,0.221,0.021,0.428,0.034,0.666c0.017,0.317,0.041,0.659,0.062,1.003c0.017,0.276,0.034,0.538,0.055,0.831
		c0.028,0.362,0.059,0.752,0.089,1.141c0.024,0.307,0.048,0.603,0.079,0.928c0.038,0.414,0.083,0.848,0.127,1.286
		c0.034,0.345,0.069,0.679,0.107,1.038c0.048,0.445,0.107,0.91,0.165,1.376c0.045,0.376,0.089,0.745,0.141,1.131
		c0.065,0.483,0.138,0.983,0.213,1.479c0.059,0.397,0.11,0.786,0.176,1.197c0.079,0.51,0.172,1.031,0.265,1.555
		c0.072,0.417,0.138,0.828,0.217,1.255c0.1,0.538,0.213,1.086,0.323,1.634c0.086,0.421,0.165,0.838,0.255,1.262
		c0.124,0.569,0.265,1.145,0.399,1.721c0.1,0.417,0.189,0.831,0.296,1.248c0.148,0.59,0.317,1.183,0.482,1.776
		c0.114,0.407,0.217,0.817,0.334,1.224c0.186,0.631,0.392,1.259,0.595,1.886c0.12,0.369,0.227,0.741,0.354,1.11
		c0.234,0.683,0.492,1.359,0.747,2.034c0.117,0.31,0.224,0.624,0.344,0.934c0.389,0.979,0.802,1.948,1.242,2.9
		C190.223,145.911,190.757,147.332,191.228,148.773z M160.012,121.332l-38.497-38.572h60.866v16.162L160.012,121.332z
		 M123.879,18.934V6.9h51.619v34.482h-51.619V25.831 M182.381,48.278v27.586h-65.384V48.278H182.381z M116.997,104.119V87.981
		l75.932,76.092c-0.296,3.107-0.929,5.738-1.552,7.721c-0.63,1.972-1.232,3.248-1.442,3.669c-0.031,0.055-0.072,0.138-0.093,0.172
		c-0.107,0.162-0.234,0.365-0.382,0.617c-2.161,3.628-6.156,6.086-11.921,7.317c-0.117,0.024-0.258,0.038-0.379,0.062
		c-1.043,0.21-2.123,0.397-3.276,0.528c-2.588,0.297-5.461,0.393-8.613,0.29c-2.374-0.069-4.77-0.186-7.206-0.331
		c-0.141-0.007-0.279-0.017-0.423-0.024c-1.094-0.066-2.233-0.145-3.348-0.221l-58.23-58.344l8.008-2.921
		C111.8,119.791,116.997,112.36,116.997,104.119z M137.396,182.818c-0.072-0.003-0.148-0.007-0.22-0.01
		c-9.935-0.469-20.816-0.503-33.373,0.886c-0.045,0.003-0.093,0.01-0.141,0.017c-4.914,0.548-10.093,1.321-15.568,2.369
		c-0.124,0.024-0.241,0.038-0.365,0.062L45.59,143.918l25.727-9.376l17.1-6.231l54.709,54.82
		C141.254,183.014,139.337,182.911,137.396,182.818z M7.433,162.683c-0.767-2.348-0.747-4.093,0.065-5.183
		c1.428-1.924,5.255-2.334,6.81-2.334c0.065,0,0.124,0.003,0.182,0.003h19.918v28.979C18.721,177.738,9.126,167.863,7.433,162.683z
		 M75.942,188.731c-12.671,3.007-24.695,5.862-34.657,3.469v-42.844L79.7,187.848c-0.21,0.048-0.41,0.09-0.619,0.138L75.942,188.731
		z"/>
</g>
</svg>
