<?xml version="1.0" encoding="iso-8859-1"?>
<!-- Generator: Adobe Illustrator 22.0.1, SVG Export Plug-In . SVG Version: 6.00 Build 0)  -->
<svg version="1.1" id="Layer_1" xmlns="http://www.w3.org/2000/svg" xmlns:xlink="http://www.w3.org/1999/xlink" x="0px" y="0px"
	 viewBox="0 0 200 200" style="enable-background:new 0 0 200 200;" xml:space="preserve">
<g>
	<path style="fill:#57B6B2;" d="M174.253,36.64c2.989-3.469,10.855-7.057,17.384-0.512c6.608,6.622,2.675,15.375-0.511,17.426
		l-52.704,47.111h-21.162L174.253,36.64z"/>
	<path style="fill:#57B6B2;" d="M25.735,10.472c16.794,1.576,30.205,15.019,31.78,31.853C40.72,40.749,27.308,27.305,25.735,10.472
		L25.735,10.472z M64.279,42.366c1.613-16.875,15.026-30.317,31.821-31.894C94.486,27.305,81.073,40.749,64.279,42.366
		L64.279,42.366z M64.279,42.366"/>
	<path style="fill:#007078;" d="M193.471,57.362c5.388-4.651,10.658-16.873,0.747-26.769c-3.933-3.942-16.086-10.485-26.706,0.751
		l-60.806,68.321H0v3.234c0,21.525,8.339,41.711,23.441,56.928c12.902,12.971,29.42,20.973,47.276,23.023v16.677h57.856V182.85
		c17.856-2.089,34.376-10.052,47.276-23.023c15.102-15.217,23.441-35.444,23.441-56.928v-3.234h-53.136L193.471,57.362z
		 M172.311,35.64c2.989-3.469,10.855-7.057,17.384-0.512c6.608,6.622,2.675,15.375-0.511,17.426l-52.704,47.111h-21.162
		L172.311,35.64z M122.123,193.062H77.128v-9.739c0.945,0.038,44.011,0.038,44.995,0V193.062z M192.724,106.13
		c-0.788,18.569-8.339,35.915-21.475,49.163c-13.885,13.995-32.37,21.683-52.035,21.683H80c-19.666,0-38.112-7.689-52.035-21.683
		C14.828,142.045,7.277,124.699,6.489,106.13H192.724z M192.724,106.13"/>
	<rect x="96.4" y="122.216" style="fill:#57B6B2;" width="6.412" height="6.426"/>
	<rect x="109.262" y="122.216" style="fill:#57B6B2;" width="6.412" height="6.426"/>
	<rect x="83.541" y="122.216" style="fill:#57B6B2;" width="6.411" height="6.426"/>
	<path style="fill:#007078;" d="M102.813,0.237c0,0-28.751-3.351-41.77,25.784C48.102-3.036,19.272,0.237,19.272,0.237
		S16.126,39.346,57.856,45.18v16.676h6.411V45.18C105.763,39.621,102.813,0.237,102.813,0.237L102.813,0.237z M25.881,6.861
		C42.675,8.437,56.086,21.88,57.66,38.714C40.866,37.137,27.453,23.693,25.881,6.861L25.881,6.861z M64.424,38.755
		C66.037,21.88,79.45,8.437,96.245,6.861C94.631,23.693,81.219,37.137,64.424,38.755L64.424,38.755z M64.424,38.755"/>
</g>
</svg>
