<?xml version="1.0" encoding="iso-8859-1"?>
<!-- Generator: Adobe Illustrator 22.0.1, SVG Export Plug-In . SVG Version: 6.00 Build 0)  -->
<svg version="1.1" id="Layer_1" xmlns="http://www.w3.org/2000/svg" xmlns:xlink="http://www.w3.org/1999/xlink" x="0px" y="0px"
	 viewBox="0 0 200 200" style="enable-background:new 0 0 200 200;" xml:space="preserve">
<g>
	<g>
		<path style="fill:#57B6B2;" d="M60.29,71.194H18.355c-5.335,0-9.677-4.342-9.677-9.677V16.355c0-5.335,4.342-9.677,9.677-9.677
			H60.29c7.229,0,13.887,2.419,19.271,6.452h-3.142c-5.335,0-9.677,4.342-9.677,9.677v32.258c0,5.335,4.342,9.677,9.677,9.677h3.142
			C74.177,68.774,67.519,71.194,60.29,71.194z"/>
		<path style="fill:#57B6B2;" d="M86.035,58.29h-9.616c-1.781,0-3.226-1.445-3.226-3.226V22.806c0-1.781,1.445-3.226,3.226-3.226
			h9.616c4.068,5.4,6.513,12.09,6.513,19.355S90.103,52.89,86.035,58.29z"/>
	</g>
	<path style="fill:#007078;" d="M187.097,35.484c-2.361,0-4.545,0.684-6.452,1.794v-5.019c0-7.116-5.787-12.903-12.903-12.903
		c-2.674,0-5.161,0.819-7.223,2.216c-1.765-5.029-6.506-8.668-12.132-8.668s-10.371,3.639-12.132,8.668
		c-2.061-1.397-4.548-2.216-7.223-2.216c-5.997,0-11.003,4.129-12.445,9.677H95.5c-1.542-5.958-4.455-11.355-8.403-15.842v-0.287
		h-0.261C79.745,5.006,69.49,0,58.065,0H16.129C7.235,0,0,7.235,0,16.129V61.29c0,8.894,7.235,16.129,16.129,16.129h41.935
		c11.426,0,21.681-5.006,28.771-12.903h0.261v-0.287c3.948-4.487,6.861-9.884,8.403-15.842h20.629v59.955l-3.226-3.226V88.71
		c0-8.003-6.513-14.516-14.516-14.516S83.871,80.706,83.871,88.71v31.468l16.842,30.874c2.219,4.071,5.581,7.316,9.726,9.387
		l5.69,2.845V200h6.452v-40.703l-9.258-4.629c-2.958-1.481-5.361-3.797-6.945-6.703l-16.055-29.432V88.71
		c0-4.448,3.616-8.065,8.065-8.065s8.065,3.616,8.065,8.065v19.077l8.342,8.342h7.787V48.387h6.452V29.032h-5.555
		c1.119-1.919,3.177-3.226,5.555-3.226c3.555,0,6.452,2.897,6.452,6.452v54.839h6.452V32.258v-6.452
		c0-3.555,2.894-6.452,6.452-6.452c3.555,0,6.452,2.897,6.452,6.452v6.452v3.226v51.613h6.452V35.484v-3.226
		c0-3.555,2.894-6.452,6.452-6.452c3.555,0,6.452,2.897,6.452,6.452v16.129v3.226v35.484h6.452V51.613v-3.226
		c0-3.555,2.894-6.452,6.452-6.452c3.555,0,6.452,2.897,6.452,6.452v96.774c0,6.148-3.416,11.677-8.916,14.426l-3.987,1.994V200
		h6.452v-34.432l0.423-0.21c7.7-3.848,12.481-11.587,12.481-20.197V48.387C200,41.271,194.213,35.484,187.097,35.484z
		 M58.065,70.968H16.129c-5.335,0-9.677-4.342-9.677-9.677V16.129c0-5.335,4.342-9.677,9.677-9.677h41.935
		c7.229,0,13.887,2.419,19.271,6.452h-3.142c-5.335,0-9.677,4.342-9.677,9.677v32.258c0,5.335,4.342,9.677,9.677,9.677h3.142
		C71.952,68.548,65.294,70.968,58.065,70.968z M83.81,58.065h-9.616c-1.781,0-3.226-1.445-3.226-3.226V22.581
		c0-1.781,1.445-3.226,3.226-3.226h9.616c4.068,5.4,6.513,12.09,6.513,19.355S87.877,52.665,83.81,58.065z M122.581,41.935H96.61
		c0.09-1.068,0.165-2.139,0.165-3.226c0-1.087-0.074-2.158-0.165-3.226h25.971V41.935z"/>
	<path style="fill:#57B6B2;" d="M134.539,107.397l-4.561,4.561l8.016,8.016c6.7,6.706,10.394,15.613,10.394,25.094v12.997h6.452
		v-12.997c0-11.203-4.365-21.732-12.284-29.652L134.539,107.397z"/>
	<path style="fill:#007078;" d="M12.903,64.516h45.161V12.903H12.903V64.516z M19.355,19.355h32.258v38.71H19.355V19.355z"/>
	<rect x="25.806" y="45.161" style="fill:#007078;" width="6.452" height="6.452"/>
	<rect x="38.71" y="45.161" style="fill:#007078;" width="6.452" height="6.452"/>
</g>
</svg>
