<?xml version="1.0" encoding="iso-8859-1"?>
<!-- Generator: Adobe Illustrator 22.0.1, SVG Export Plug-In . SVG Version: 6.00 Build 0)  -->
<svg version="1.1" id="Layer_1" xmlns="http://www.w3.org/2000/svg" xmlns:xlink="http://www.w3.org/1999/xlink" x="0px" y="0px"
	 viewBox="0 0 200 200" style="enable-background:new 0 0 200 200;" xml:space="preserve">
<g>
	<g>
		<g>
			<path style="fill:#57B6B2;" d="M84.956,72.953c-1.525-1.525-3.999-1.525-5.525,0L55.676,96.708c-1.525,1.525-1.525,3.999,0,5.525
				c0.763,0.763,1.763,1.144,2.763,1.144c1,0,2-0.382,2.763-1.144l23.754-23.755C86.481,76.953,86.481,74.479,84.956,72.953z"/>
		</g>
	</g>
	<g>
		<g>
			<path style="fill:#57B6B2;" d="M51.955,109.165c-0.051-0.25-0.129-0.493-0.227-0.73c-0.098-0.235-0.219-0.461-0.359-0.672
				c-0.141-0.215-0.305-0.414-0.484-0.597c-0.18-0.18-0.379-0.34-0.594-0.484c-0.211-0.141-0.438-0.262-0.676-0.359
				c-0.234-0.098-0.48-0.172-0.73-0.223c-0.504-0.102-1.02-0.102-1.523,0c-0.25,0.051-0.496,0.125-0.73,0.223
				c-0.238,0.098-0.465,0.219-0.676,0.359c-0.215,0.145-0.414,0.305-0.594,0.484c-0.18,0.184-0.344,0.382-0.484,0.597
				c-0.141,0.211-0.262,0.437-0.359,0.672c-0.098,0.234-0.172,0.48-0.223,0.73c-0.051,0.254-0.078,0.508-0.078,0.766
				c0,0.254,0.027,0.508,0.078,0.761c0.051,0.25,0.125,0.496,0.223,0.73c0.098,0.235,0.219,0.461,0.359,0.676
				c0.141,0.211,0.305,0.414,0.484,0.594c0.18,0.18,0.379,0.344,0.594,0.484c0.211,0.141,0.438,0.262,0.676,0.359
				c0.234,0.098,0.48,0.172,0.73,0.223c0.25,0.051,0.508,0.078,0.762,0.078c0.254,0,0.512-0.027,0.762-0.078
				c0.25-0.051,0.496-0.125,0.73-0.223c0.238-0.098,0.465-0.219,0.676-0.359c0.215-0.141,0.414-0.305,0.594-0.484
				c0.18-0.18,0.344-0.383,0.484-0.594c0.141-0.215,0.262-0.441,0.359-0.676c0.098-0.234,0.176-0.48,0.227-0.73
				c0.051-0.254,0.074-0.508,0.074-0.761C52.029,109.672,52.006,109.418,51.955,109.165z"/>
		</g>
	</g>
	<g>
		<g>
			<path style="fill:#57B6B2;" d="M92.458,89.903c-1.525-1.525-3.999-1.525-5.525,0l-35.081,35.08c-1.525,1.525-1.526,3.999,0,5.525
				c0.763,0.762,1.763,1.144,2.763,1.144c1,0,2-0.382,2.763-1.144l35.08-35.08C93.983,93.902,93.983,91.428,92.458,89.903z"/>
		</g>
	</g>
	<g>
		<g>
			<path style="fill:#57B6B2;" d="M103.84,81.446c-0.047-0.25-0.125-0.496-0.223-0.73c-0.098-0.238-0.215-0.465-0.359-0.676
				c-0.141-0.215-0.305-0.414-0.484-0.594c-0.18-0.18-0.379-0.344-0.594-0.484c-0.211-0.141-0.437-0.262-0.676-0.359
				c-0.234-0.098-0.48-0.172-0.73-0.223c-1.27-0.257-2.618,0.16-3.524,1.066c-0.18,0.18-0.344,0.379-0.484,0.594
				c-0.141,0.211-0.262,0.438-0.359,0.676c-0.098,0.234-0.176,0.48-0.223,0.73c-0.051,0.25-0.078,0.508-0.078,0.762
				c0,0.254,0.027,0.512,0.078,0.766c0.047,0.246,0.125,0.492,0.223,0.73c0.098,0.235,0.219,0.461,0.359,0.672
				c0.141,0.215,0.305,0.414,0.484,0.594c0.727,0.727,1.734,1.145,2.762,1.145c0.254,0,0.512-0.024,0.762-0.074
				c0.25-0.051,0.496-0.125,0.73-0.223c0.238-0.098,0.465-0.219,0.676-0.359c0.215-0.145,0.414-0.309,0.594-0.488
				c0.18-0.18,0.344-0.379,0.484-0.594c0.141-0.211,0.262-0.438,0.359-0.672c0.098-0.238,0.176-0.484,0.223-0.73
				c0.051-0.254,0.078-0.512,0.078-0.766C103.918,81.954,103.891,81.696,103.84,81.446z"/>
		</g>
	</g>
	<g>
		<path style="fill:#007078;" d="M195.281,45.099c-7.027-7.027-19.39-6.098-27.559,2.07c-0.077,0.077-0.15,0.157-0.221,0.24
			c-0.123,0.146-9.128,10.79-18.952,22.111c-7.762-11.916-18.547-21.306-31.015-27.38h45.889c2.158,0,3.907-1.75,3.907-3.907v-0.291
			c0-14.229-11.576-25.806-25.806-25.806H25.806C11.576,12.137,0,23.713,0,37.942v0.291c0,2.157,1.749,3.907,3.907,3.907h45.886
			c-25.75,12.586-43.53,39.047-43.53,69.586c0,37.084,26.397,69.052,62.761,76.014c0.427,0.082,0.837,0.123,1.23,0.123
			c1.144,0,2.144-0.348,2.982-1.04c1.067-0.881,1.655-2.179,1.655-3.654v-7.635c0-0.543,0.459-1.001,1.002-1.001h15.543
			c0.543,0,1.002,0.459,1.002,1.001v7.005c0,1.537,0.672,2.968,1.844,3.928c1.507,1.234,3.419,1.399,4.705,1.14
			c17.277-3.47,33.016-12.897,44.318-26.543c11.454-13.829,17.762-31.351,17.762-49.338c0-1.188-0.032-2.405-0.09-3.635l1.448-1.448
			c0.733-0.733,1.144-1.727,1.144-2.762c0-1.036-0.412-2.03-1.144-2.762l-1.019-1.019c13.991-12.354,31.378-27.062,31.565-27.22
			c0.083-0.07,0.163-0.144,0.24-0.22C201.38,64.489,202.308,52.127,195.281,45.099z M8.178,34.327
			c1.678-8.195,8.944-14.377,17.627-14.377h115.72c8.683,0,15.95,6.182,17.628,14.377H83.98c-0.105,0-0.209-0.003-0.314-0.003
			c-0.07,0-0.14,0.002-0.21,0.003H8.178z M100.252,179.323v-3.788c0-4.86-3.954-8.815-8.815-8.815H75.893
			c-4.861,0-8.815,3.954-8.815,8.815v3.789c-30.914-7.545-53.001-35.431-53.001-67.597c0-38.301,31.104-69.472,69.378-69.586h0.373
			c24.309,0.057,46.797,12.823,59.361,33.528c-0.138,0.157-0.275,0.314-0.413,0.471c-0.259,0.295-0.517,0.589-0.771,0.879
			c-0.183,0.208-0.365,0.415-0.547,0.621c-0.355,0.403-0.706,0.802-1.051,1.192c-0.042,0.048-0.084,0.095-0.126,0.143l-0.985-0.985
			c-0.763-0.762-1.763-1.144-2.762-1.144c-0.625,0-1.25,0.149-1.817,0.447c-0.113,0.06-0.225,0.125-0.333,0.196
			c-0.217,0.143-0.422,0.31-0.613,0.5l-7.328,7.328c-9.043-15.463-25.722-25.19-43.895-25.19c-28.025,0-50.826,22.801-50.826,50.827
			s22.801,50.826,50.826,50.826c7.317,0,14.35-1.519,20.939-4.509c2.031,0.911,4.12,1.631,6.246,2.144
			c0.389,0.094,0.777,0.177,1.164,0.256c0.104,0.021,0.209,0.041,0.313,0.062c0.327,0.063,0.652,0.121,0.978,0.173
			c0.067,0.011,0.134,0.023,0.202,0.034c0.382,0.059,0.763,0.109,1.142,0.153c0.096,0.011,0.193,0.021,0.289,0.031
			c0.305,0.032,0.61,0.06,0.914,0.083c0.095,0.007,0.189,0.016,0.284,0.022c0.375,0.025,0.748,0.043,1.12,0.054
			c0.076,0.002,0.151,0.002,0.227,0.004c0.193,0.004,0.387,0.009,0.58,0.009c0.12,0,0.239-0.004,0.359-0.005
			c0.09-0.001,0.18-0.002,0.27-0.004c0.363-0.008,0.725-0.022,1.084-0.044c0.065-0.004,0.13-0.01,0.195-0.014
			c0.315-0.021,0.629-0.048,0.941-0.081c0.082-0.009,0.164-0.016,0.245-0.025c0.354-0.04,0.706-0.086,1.056-0.14
			c0.073-0.011,0.146-0.024,0.219-0.036c0.306-0.05,0.61-0.105,0.912-0.165c0.069-0.014,0.138-0.027,0.207-0.041
			c0.345-0.072,0.686-0.151,1.025-0.237c0.077-0.02,0.152-0.04,0.229-0.06c0.302-0.08,0.603-0.164,0.9-0.255
			c0.052-0.016,0.104-0.03,0.156-0.046c0.334-0.104,0.663-0.216,0.99-0.334c0.076-0.027,0.152-0.056,0.227-0.084
			c0.305-0.114,0.608-0.232,0.907-0.358c0.029-0.012,0.058-0.023,0.087-0.036c0.321-0.137,0.636-0.282,0.95-0.432
			c0.074-0.036,0.147-0.071,0.221-0.108c0.314-0.155,0.625-0.315,0.931-0.485c2.182-1.211,4.439-2.464,13.049-22.241
			c0.156-0.358,0.311-0.716,0.466-1.074c0.034-0.078,0.067-0.155,0.1-0.233c0.12-0.277,0.238-0.553,0.357-0.828
			c0.045-0.105,0.09-0.21,0.135-0.315c0.107-0.25,0.214-0.5,0.32-0.748c0.045-0.105,0.089-0.209,0.134-0.314
			c0.106-0.248,0.211-0.496,0.315-0.742c0.042-0.1,0.084-0.198,0.126-0.298c0.105-0.249,0.21-0.497,0.314-0.743
			c0.039-0.093,0.078-0.186,0.117-0.278c0.104-0.246,0.207-0.491,0.308-0.734c0.04-0.095,0.08-0.19,0.12-0.285
			c0.103-0.246,0.204-0.488,0.305-0.729c0.032-0.076,0.063-0.152,0.095-0.227c0.109-0.262,0.216-0.519,0.322-0.774
			c0.023-0.056,0.047-0.113,0.07-0.169c0.111-0.267,0.219-0.529,0.326-0.787c0.018-0.045,0.037-0.09,0.055-0.134
			c0.116-0.282,0.23-0.557,0.341-0.828c0.007-0.016,0.014-0.034,0.021-0.05c0.575-1.399,1.08-2.64,1.487-3.645l5.183-5.183
			C151.287,146.226,129.772,172.11,100.252,179.323z M80.968,130.549c0.49,2.069,1.192,4.128,2.085,6.141
			c1.636,3.688,3.917,7.22,6.707,10.371c0.56,0.633,1.138,1.252,1.739,1.853c0,0,0,0,0,0c0.308,0.308,0.62,0.609,0.935,0.906
			c0.112,0.105,0.225,0.207,0.338,0.311c0.204,0.188,0.409,0.376,0.616,0.559c0.14,0.124,0.282,0.245,0.423,0.368
			c0.18,0.155,0.361,0.311,0.544,0.463c0.16,0.133,0.32,0.264,0.481,0.395c0.08,0.066,0.161,0.135,0.242,0.2
			c-4.029,1.229-8.221,1.849-12.53,1.849c-23.718,0-43.013-19.296-43.013-43.013c0-23.718,19.296-43.013,43.013-43.013
			c16.075,0,30.77,8.993,38.147,23.124l-1.571,1.571c-0.048,0.019-0.102,0.041-0.15,0.06c-0.083,0.033-0.168,0.067-0.254,0.101
			c-0.119,0.047-0.238,0.095-0.362,0.145c-0.134,0.054-0.271,0.109-0.412,0.164c-0.077,0.031-0.154,0.062-0.233,0.093
			c-0.175,0.07-0.352,0.141-0.534,0.214c-0.049,0.02-0.099,0.04-0.148,0.059c-0.213,0.086-0.428,0.172-0.65,0.262
			c-0.005,0.002-0.011,0.005-0.017,0.007c-0.98,0.395-2.05,0.829-3.182,1.293c-0.057,0.023-0.114,0.046-0.171,0.07
			c-0.204,0.084-0.412,0.169-0.62,0.255c-0.118,0.048-0.234,0.096-0.352,0.145c-0.186,0.077-0.373,0.154-0.561,0.231
			c-0.146,0.061-0.293,0.121-0.441,0.182c-0.173,0.072-0.347,0.144-0.522,0.216c-0.164,0.068-0.329,0.136-0.494,0.205
			c-0.171,0.071-0.342,0.143-0.514,0.214c-0.175,0.073-0.35,0.146-0.526,0.22c-0.162,0.068-0.325,0.136-0.488,0.205
			c-0.2,0.084-0.401,0.169-0.602,0.254c-0.144,0.061-0.288,0.121-0.433,0.182c-0.229,0.097-0.459,0.195-0.689,0.292
			c-0.12,0.051-0.24,0.102-0.361,0.153c-0.352,0.15-0.704,0.3-1.056,0.451c-19.29,8.275-20.886,10.672-22.056,12.715
			c-0.019,0.032-0.037,0.065-0.055,0.097c-1.112,1.95-1.924,4.079-2.443,6.327C79.854,121.532,79.894,126.011,80.968,130.549z
			 M93.446,139.181c-2.339-3.256-4.023-6.837-4.875-10.432c-0.268-1.131-0.446-2.251-0.545-3.35
			c-0.195-2.16-0.068-4.239,0.374-6.166c0.349-1.519,0.889-2.946,1.625-4.238c0.064-0.112,0.196-0.272,0.447-0.494
			c1.194-1.052,5.145-3.513,17.957-9.01c0.339-0.146,0.679-0.291,1.018-0.435c0.075-0.032,0.151-0.064,0.226-0.096
			c0.266-0.113,0.532-0.226,0.796-0.338c0.082-0.035,0.165-0.07,0.248-0.105c0.311-0.131,0.622-0.262,0.93-0.392
			c0.016-0.007,0.032-0.013,0.047-0.02c0.346-0.145,0.689-0.289,1.031-0.431c0.035-0.014,0.069-0.029,0.104-0.043
			c0.297-0.124,0.591-0.246,0.884-0.367c0.064-0.027,0.127-0.053,0.19-0.079c0.27-0.112,0.538-0.223,0.804-0.332
			c0.059-0.024,0.118-0.048,0.176-0.073c0.634-0.261,1.253-0.515,1.853-0.76c0.059-0.024,0.118-0.048,0.177-0.072
			c0.243-0.099,0.482-0.196,0.718-0.293c0.059-0.024,0.118-0.048,0.177-0.072c0.277-0.112,0.55-0.223,0.816-0.331
			c0.004-0.002,0.007-0.003,0.011-0.005c0.707-0.286,1.367-0.551,1.983-0.798l19.405,19.405c-0.451,1.107-0.97,2.373-1.542,3.752
			c-0.004,0.01-0.007,0.019-0.011,0.028c-0.259,0.625-0.529,1.271-0.806,1.934c-0.007,0.016-0.014,0.033-0.02,0.049
			c-0.125,0.3-0.253,0.603-0.382,0.909c-0.021,0.049-0.041,0.098-0.062,0.147c-0.127,0.303-0.256,0.608-0.387,0.916
			c-0.011,0.025-0.021,0.049-0.031,0.074c-0.144,0.339-0.289,0.681-0.435,1.025c-0.011,0.025-0.021,0.051-0.032,0.076
			c-0.127,0.298-0.255,0.597-0.384,0.897c-0.037,0.086-0.074,0.173-0.111,0.259c-0.109,0.254-0.219,0.508-0.329,0.763
			c-0.037,0.086-0.074,0.171-0.111,0.257c-0.144,0.333-0.288,0.666-0.434,1c-6.818,15.66-9.039,18.174-9.677,18.529
			c-3.77,2.092-8.637,2.57-13.704,1.348c-2.142-0.516-4.243-1.308-6.268-2.346c-0.004-0.002-0.008-0.005-0.012-0.007
			c-1.475-0.756-2.9-1.639-4.266-2.641c-0.053-0.039-0.105-0.079-0.158-0.118c-0.265-0.196-0.527-0.398-0.787-0.603
			c-0.091-0.072-0.182-0.145-0.273-0.218c-0.224-0.18-0.446-0.365-0.666-0.552c-0.101-0.086-0.202-0.171-0.302-0.257
			c-0.22-0.191-0.438-0.387-0.655-0.586c-0.088-0.081-0.178-0.16-0.266-0.242c-0.3-0.28-0.597-0.565-0.89-0.858l0,0
			C95.708,142.074,94.509,140.661,93.446,139.181z M144.618,113.4l-17.604-17.604l1.168-1.168c0.001-0.001,0.001-0.002,0.002-0.002
			l8.349-8.349l17.604,17.604L144.618,113.4z M187.795,67.024c-1.656,1.402-18.442,15.625-31.924,27.539L145.818,84.51
			c0.048-0.054,0.096-0.109,0.144-0.163c0.279-0.315,0.561-0.636,0.846-0.959c0.048-0.054,0.095-0.107,0.143-0.162
			c1.264-1.435,2.59-2.946,3.968-4.524c0.004-0.004,0.007-0.008,0.01-0.012c10.543-12.075,21.224-24.68,22.429-26.104
			c5.118-5.027,12.447-5.914,16.399-1.961C193.709,54.577,192.822,61.906,187.795,67.024z"/>
	</g>
</g>
</svg>
