<?xml version="1.0" encoding="iso-8859-1"?>
<!-- Generator: Adobe Illustrator 22.0.1, SVG Export Plug-In . SVG Version: 6.00 Build 0)  -->
<svg version="1.1" id="Layer_1" xmlns="http://www.w3.org/2000/svg" xmlns:xlink="http://www.w3.org/1999/xlink" x="0px" y="0px"
	 viewBox="0 0 200 200" style="enable-background:new 0 0 200 200;" xml:space="preserve">
<g>
	<path style="fill:#007078;" d="M190.323,51.613h-22.581V36.09c5.774-3.352,9.677-9.59,9.677-16.735
		C177.419,8.681,168.739,0,158.065,0c-5.935,0-11.252,2.69-14.803,6.913l-40.035,13.342v11.761l44.035,3.387
		c0.365,0.245,0.745,0.465,1.126,0.684v15.526h-22.581c-5.335,0-9.677,4.342-9.677,9.677v3.226v38.71H96.774
		c-0.203,0-0.394,0.048-0.594,0.061l0.416-2.084c0.116-0.587,0.177-1.187,0.177-1.787c0-5.013-4.081-9.094-9.094-9.094h-3.274
		l5.81-37.758c0.071-0.468,0.106-0.939,0.106-1.41c0-5.084-4.135-9.219-9.219-9.219h-5.477c1.11-1.906,1.794-4.09,1.794-6.452
		c0-7.116-5.787-12.903-12.903-12.903s-12.903,5.787-12.903,12.903c0,2.361,0.684,4.545,1.794,6.452h-6.332
		c-4.581,0-8.41,3.287-9.11,7.813l-1.394,9.039L24.123,8.997C22.797,3.7,18.058,0,12.597,0h-0.716C5.329,0,0,5.329,0,11.881
		c0,0.942,0.11,1.877,0.329,2.771l18.158,75.671H9.094C4.081,90.323,0,94.403,0,99.416c0,0.6,0.061,1.2,0.177,1.787L19.939,200h56.9
		l1.939-9.697C81.268,196,86.945,200,93.548,200h41.935h9.677h45.161c5.335,0,9.677-4.342,9.677-9.677v-80.645V64.516V61.29
		C200,55.955,195.658,51.613,190.323,51.613z M109.677,26.045v-1.139l29.529-9.845c-0.316,1.384-0.497,2.816-0.497,4.294
		c0,3.287,0.829,6.384,2.281,9.1L109.677,26.045z M145.161,19.355c0-7.116,5.787-12.903,12.903-12.903s12.903,5.787,12.903,12.903
		s-5.787,12.903-12.903,12.903S145.161,26.471,145.161,19.355z M161.29,38.71v12.903h-6.452V38.71H161.29z M93.548,112.903
		c0-1.781,1.445-3.226,3.226-3.226h19.355h25.806c1.781,0,3.226,1.445,3.226,3.226v3.226H93.548V112.903z M64.516,29.032
		c3.558,0,6.452,2.894,6.452,6.452s-2.894,6.452-6.452,6.452s-6.452-2.894-6.452-6.452S60.958,29.032,64.516,29.032z M44.339,50.732
		c0.206-1.339,1.384-2.345,2.735-2.345h34.029c1.526,0,2.768,1.242,2.768,2.768c0,0.135-0.01,0.274-0.032,0.419l-5.961,38.748
		H44.452l-3.848-15.394L44.339,50.732z M6.6,13.135c-0.097-0.403-0.148-0.829-0.148-1.255c0-2.994,2.435-5.429,5.429-5.429H12.6
		c2.494,0,4.658,1.69,5.265,4.11l19.942,79.761H25.126L6.6,13.135z M77.419,132.258v3.226v28.719l-5.868,29.345H25.223L6.503,99.935
		c-0.035-0.168-0.052-0.342-0.052-0.519c0-1.458,1.184-2.642,2.642-2.642h78.584c1.461,0,2.645,1.184,2.645,2.642
		c0,0.177-0.016,0.348-0.052,0.519l-1.513,7.548c-1.045,1.548-1.661,3.413-1.661,5.419v4.594
		C81.41,119.994,77.419,125.661,77.419,132.258z M154.839,183.871c0,5.335-4.342,9.677-9.677,9.677h-9.677H93.548
		c-5.335,0-9.677-4.342-9.677-9.677v-3.226h70.968V183.871z M154.839,174.194H83.871v-32.258h70.968V174.194z M154.839,135.484
		H83.871v-3.226c0-5.335,4.342-9.677,9.677-9.677h51.613c5.335,0,9.677,4.342,9.677,9.677V135.484z M193.548,190.323
		c0,1.781-1.445,3.226-3.226,3.226h-32.342c2.048-2.703,3.31-6.032,3.31-9.677v-3.226v-45.161v-3.226
		c0-6.597-3.99-12.265-9.677-14.761v-4.594c0-1.135-0.232-2.213-0.594-3.226h42.529V190.323z M193.548,103.226h-51.613h-19.355
		V70.968h70.968V103.226z M193.548,64.516h-70.968V61.29c0-1.781,1.445-3.226,3.226-3.226h22.581h19.355h22.581
		c1.781,0,3.226,1.445,3.226,3.226V64.516z"/>
	<path style="fill:#57B6B2;" d="M158.065,96.774c4.2,0,7.748-2.706,9.084-6.452h7.045v-6.452h-7.045
		c-1.335-3.745-4.884-6.452-9.084-6.452c-4.2,0-7.748,2.706-9.084,6.452h-7.045v6.452h7.045
		C150.316,94.068,153.865,96.774,158.065,96.774z M158.065,83.871c1.781,0,3.226,1.445,3.226,3.226c0,1.781-1.445,3.226-3.226,3.226
		s-3.226-1.445-3.226-3.226C154.839,85.316,156.284,83.871,158.065,83.871z"/>
	<path style="fill:#57B6B2;" d="M119.355,167.742c4.2,0,7.748-2.706,9.084-6.452h7.045v-6.452h-7.045
		c-1.335-3.745-4.884-6.452-9.084-6.452c-4.2,0-7.748,2.706-9.084,6.452h-7.045v6.452h7.045
		C111.606,165.035,115.155,167.742,119.355,167.742z M119.355,154.839c1.781,0,3.226,1.445,3.226,3.226s-1.445,3.226-3.226,3.226
		s-3.226-1.445-3.226-3.226S117.574,154.839,119.355,154.839z"/>
	<rect x="61.29" y="180.645" style="fill:#57B6B2;" width="6.452" height="6.452"/>
	<rect x="29.032" y="180.645" style="fill:#57B6B2;" width="25.806" height="6.452"/>
	<rect x="48.387" y="58.065" style="fill:#57B6B2;" width="25.806" height="6.452"/>
	<rect x="48.387" y="70.968" style="fill:#57B6B2;" width="6.452" height="6.452"/>
	<rect x="61.29" y="70.968" style="fill:#57B6B2;" width="12.903" height="6.452"/>
</g>
</svg>
