<?xml version="1.0" encoding="iso-8859-1"?>
<!-- Generator: Adobe Illustrator 22.0.1, SVG Export Plug-In . SVG Version: 6.00 Build 0)  -->
<svg version="1.1" id="Layer_1" xmlns="http://www.w3.org/2000/svg" xmlns:xlink="http://www.w3.org/1999/xlink" x="0px" y="0px"
	 viewBox="0 0 200 200" style="enable-background:new 0 0 200 200;" xml:space="preserve">
<g>
	<path style="fill:#007078;" d="M168.209,106.568c-6.295-17.227-14.113-31.733-23.237-43.116
		c-7.375-9.201-15.62-16.401-24.506-21.401c-10.857-6.109-19.995-7.436-24.596-7.676V27.04c0-1.618-1.311-2.93-2.93-2.93H68.456
		c-1.618,0-2.93,1.312-2.93,2.93v25.492h-9.992c-1.618,0-2.93,1.312-2.93,2.93v15.473h-7.738c-1.047,0-2.014,0.559-2.537,1.465
		l-8.736,15.131c-0.809,1.401-0.329,3.193,1.072,4.002c1.402,0.809,3.193,0.329,4.002-1.072l7.89-13.666h67.75l33.875,58.673
		l-33.875,58.673H46.559l-33.875-58.673l20.646-35.76c0.809-1.401,0.329-3.193-1.072-4.002c-1.402-0.809-3.193-0.329-4.002,1.072
		L6.764,134.003c-0.523,0.906-0.523,2.023,0,2.93l35.566,61.602c0.523,0.906,1.49,1.465,2.537,1.465H116
		c1.047,0,2.014-0.559,2.537-1.465l35.566-61.602c0.523-0.907,0.523-2.023,0-2.93L118.537,72.4c-0.523-0.906-1.49-1.465-2.537-1.465
		h-7.211V55.462c0-1.618-1.311-2.93-2.93-2.93H95.87V40.241c3.979,0.243,12.037,1.467,21.722,6.917
		c13.018,7.325,31.412,23.927,45.113,61.421c0.434,1.188,1.556,1.925,2.752,1.925c0.334,0,0.673-0.057,1.005-0.179
		C167.983,109.77,168.764,108.088,168.209,106.568z M61.004,70.935h-2.54V58.392h2.54V70.935z M69.386,70.935h-2.523V58.392h2.523
		L69.386,70.935L69.386,70.935z M77.768,70.935h-2.523V58.392h2.523V70.935z M86.15,70.935h-2.523V58.392h2.523V70.935z
		 M90.011,37.24c0,0.007,0,0.014,0,0.021v15.272H71.386V29.97h18.625L90.011,37.24L90.011,37.24z M94.532,70.935H92.01V58.392h2.522
		V70.935z M100.391,58.392h2.538v12.543h-2.538V58.392z"/>
</g>
<g>
	<path style="fill:#57B6B2;" d="M43.713,20.21l-12.025-3.863c-1.54-0.496-3.191,0.352-3.686,1.893
		c-0.495,1.541,0.353,3.191,1.893,3.686l12.025,3.863c0.298,0.096,0.6,0.141,0.897,0.141c1.239,0,2.389-0.792,2.789-2.034
		C46.101,22.355,45.253,20.705,43.713,20.21z"/>
</g>
<g>
	<path style="fill:#57B6B2;" d="M46.968,33.634c-0.739-1.439-2.506-2.007-3.945-1.267l-11.234,5.771
		c-1.439,0.739-2.006,2.505-1.267,3.945c0.519,1.011,1.545,1.591,2.608,1.591c0.45,0,0.908-0.104,1.337-0.325l11.234-5.771
		C47.141,36.84,47.708,35.074,46.968,33.634z"/>
</g>
<g>
	<path style="fill:#57B6B2;" d="M53.652,12.826L47.881,1.592c-0.739-1.439-2.506-2.007-3.945-1.267
		c-1.439,0.739-2.006,2.505-1.267,3.945l5.771,11.235c0.519,1.011,1.545,1.591,2.608,1.591c0.45,0,0.908-0.104,1.337-0.325
		C53.824,16.031,54.392,14.265,53.652,12.826z"/>
</g>
<g>
	<path style="fill:#57B6B2;" d="M184.016,146.689v-8.336c0-1.618-1.311-2.93-2.93-2.93h-4.324
		c-1.552-6.448-3.489-13.486-5.416-19.655c-0.482-1.545-2.124-2.406-3.67-1.923c-1.544,0.482-2.405,2.125-1.923,3.67
		c1.754,5.616,3.517,11.968,4.979,17.908h-4.174c-1.618,0-2.93,1.312-2.93,2.93v8.335c-5.894,3.554-9.613,10.027-9.613,16.981
		c0,10.92,8.886,19.805,19.809,19.805c10.92,0,19.805-8.884,19.805-19.805C193.629,156.716,189.91,150.243,184.016,146.689z
		 M174.44,141.283c0.001,0,0.002,0,0.002,0c0.001,0,0.002,0,0.004,0h3.711v5.037h-8.669v-5.037H174.44z M173.824,177.615
		c-7.691,0-13.949-6.256-13.949-13.945c0-4.639,2.351-8.972,6.127-11.545c0.18,0.035,0.366,0.054,0.556,0.054h14.529
		c0.19,0,0.375-0.02,0.555-0.054c3.776,2.572,6.127,6.906,6.127,11.545C187.77,171.359,181.514,177.615,173.824,177.615z"/>
</g>
<g>
	<path style="fill:#57B6B2;" d="M79.161,34.93c-1.618,0-2.93,1.312-2.93,2.93v4.94c0,1.618,1.311,2.93,2.93,2.93
		s2.93-1.312,2.93-2.93v-4.94C82.09,36.241,80.779,34.93,79.161,34.93z"/>
</g>
<g>
	<path style="fill:#57B6B2;" d="M100.997,128.815H60.399c-1.618,0-2.93,1.312-2.93,2.93s1.311,2.93,2.93,2.93h40.599
		c1.618,0,2.93-1.312,2.93-2.93C103.927,130.126,102.615,128.815,100.997,128.815z"/>
</g>
<g>
	<path style="fill:#57B6B2;" d="M100.997,174.428H60.399c-1.618,0-2.93,1.312-2.93,2.93c0,1.618,1.311,2.93,2.93,2.93h40.599
		c1.618,0,2.93-1.312,2.93-2.93C103.927,175.739,102.615,174.428,100.997,174.428z"/>
</g>
<g>
	<path style="fill:#57B6B2;" d="M120.511,142.465H40.884c-1.618,0-2.93,1.312-2.93,2.93s1.311,2.93,2.93,2.93h79.627
		c1.618,0,2.93-1.312,2.93-2.93C123.441,143.776,122.13,142.465,120.511,142.465z"/>
</g>
</svg>
