<?xml version="1.0" encoding="iso-8859-1"?>
<!-- Generator: Adobe Illustrator 22.0.1, SVG Export Plug-In . SVG Version: 6.00 Build 0)  -->
<svg version="1.1" id="Layer_1" xmlns="http://www.w3.org/2000/svg" xmlns:xlink="http://www.w3.org/1999/xlink" x="0px" y="0px"
	 viewBox="107 297 200 200" style="enable-background:new 107 297 200 200;" xml:space="preserve">
<g>
	<path d="M307.003,310.623c0.015-3.651-1.395-7.08-3.969-9.655c-2.575-2.573-6.01-3.981-9.655-3.967
		c-3.641,0.016-7.069,1.446-9.651,4.028c-1.095,1.095-3.085,3.457-4.171,4.769c-1.145,1.377-0.956,3.42,0.421,4.563
		s3.42,0.954,4.563-0.423c1.705-2.053,3.115-3.67,3.769-4.324c1.366-1.366,3.176-2.123,5.099-2.132h0.03
		c1.898,0,3.679,0.736,5.015,2.071c1.343,1.343,2.077,3.134,2.069,5.045c-0.008,1.921-0.765,3.731-2.13,5.099
		c-1.225,1.222-5.428,4.557-11.452,8.764c-3.561-6.092-10.17-10.195-17.722-10.195h-47.448c-6.405,0-12.427,2.495-16.955,7.023
		l-94.843,94.843c-1.917,1.917-2.974,4.467-2.974,7.179c0,2.711,1.057,5.261,2.974,7.179l63.543,63.543
		c1.98,1.978,4.58,2.968,7.179,2.968c2.6,0,5.199-0.99,7.179-2.968l94.843-94.843c4.528-4.528,7.023-10.55,7.023-16.955v-47.448
		c0-1.4-0.143-2.768-0.412-4.089c6.857-4.717,11.891-8.665,13.646-10.42C305.555,317.693,306.987,314.266,307.003,310.623
		L307.003,310.623z M283.258,382.234c0,4.673-1.82,9.068-5.125,12.371l-94.842,94.843c-1.433,1.433-3.763,1.433-5.194,0
		l-63.543-63.543c-0.694-0.692-1.076-1.616-1.076-2.596c0-0.982,0.382-1.903,1.076-2.598l94.841-94.842
		c3.306-3.305,7.7-5.125,12.373-5.125h47.448c5.327,0,9.972,2.983,12.35,7.366c-3.828,2.535-8.114,5.23-12.659,7.88
		c-0.143-0.154-0.288-0.309-0.437-0.459c-5.306-5.307-13.941-5.307-19.248,0c-5.306,5.306-5.306,13.941,0,19.248
		c2.653,2.653,6.138,3.979,9.623,3.979c3.485,0,6.972-1.326,9.625-3.979c3.54-3.542,4.715-8.566,3.529-13.093
		c3.954-2.302,7.752-4.656,11.256-6.931c0.002,0.009,0.002,0.021,0.002,0.03V382.234z M255.953,346.612
		c0.57,1.131,1.711,1.785,2.897,1.785c0.49,0,0.986-0.112,1.454-0.347c1.899-0.956,3.792-1.949,5.667-2.968
		c0.019,1.85-0.673,3.706-2.081,5.114c-2.781,2.779-7.302,2.779-10.083,0c-2.779-2.779-2.779-7.301,0-10.081
		c1.391-1.39,3.216-2.085,5.041-2.085c1.446,0,2.886,0.442,4.116,1.314c-1.835,0.996-3.696,1.972-5.571,2.917
		C255.793,343.064,255.148,345.013,255.953,346.612L255.953,346.612z M255.953,346.612"/>
	<path d="M203.547,363c-1.789,0-3.24,1.452-3.24,3.241v68.432c0,1.789,1.451,3.24,3.24,3.24c1.79,0,3.241-1.451,3.241-3.24v-68.432
		C206.788,364.451,205.337,363,203.547,363L203.547,363z M203.547,363"/>
	<path d="M188.731,390.832c-5.306-5.306-13.941-5.306-19.248,0c-5.306,5.307-5.306,13.941,0,19.248
		c2.655,2.653,6.138,3.979,9.625,3.979c3.483,0,6.969-1.328,9.623-3.979c2.571-2.571,3.986-5.989,3.986-9.624
		C192.717,396.822,191.3,393.404,188.731,390.832L188.731,390.832z M184.147,405.497c-2.779,2.779-7.301,2.779-10.081,0
		c-2.779-2.779-2.779-7.301,0-10.081c1.391-1.39,3.216-2.085,5.042-2.085c1.825,0,3.65,0.694,5.039,2.085
		c1.347,1.345,2.088,3.136,2.088,5.04C186.236,402.361,185.494,404.15,184.147,405.497L184.147,405.497z M184.147,405.497"/>
	<path d="M237.61,390.832c-5.306-5.306-13.941-5.306-19.246,0c-5.306,5.307-5.306,13.941,0,19.248
		c2.653,2.653,6.138,3.979,9.623,3.979c3.485,0,6.97-1.326,9.623-3.979C242.916,404.774,242.916,396.139,237.61,390.832
		L237.61,390.832z M233.026,405.497c-2.779,2.779-7.302,2.779-10.081,0c-2.779-2.779-2.779-7.301,0-10.081
		c1.391-1.39,3.216-2.085,5.041-2.085c1.826,0,3.651,0.694,5.041,2.085C235.807,398.195,235.807,402.717,233.026,405.497
		L233.026,405.497z M233.026,405.497"/>
</g>
</svg>
