<?xml version="1.0" encoding="iso-8859-1"?>
<!-- Generator: Adobe Illustrator 22.0.1, SVG Export Plug-In . SVG Version: 6.00 Build 0)  -->
<svg version="1.1" id="Layer_1" xmlns="http://www.w3.org/2000/svg" xmlns:xlink="http://www.w3.org/1999/xlink" x="0px" y="0px"
	 viewBox="0 0 200 200" style="enable-background:new 0 0 200 200;" xml:space="preserve">
<g>
	<g>
		<path style="fill:#57B6B2;" d="M157.065,148.387v-16.129h-6.452v16.129h-19.355V61.29h38.71c5.335,0,9.677,4.342,9.677,9.677
			v67.742c0,5.335-4.342,9.677-9.677,9.677H157.065z"/>
		<path style="fill:#57B6B2;" d="M182.787,148.387c2.048-2.703,3.31-6.032,3.31-9.677V70.968c0-3.645-1.261-6.974-3.31-9.677h12.987
			v87.097H182.787z"/>
	</g>
	<g>
		<rect x="38.399" y="125.645" style="fill:#57B6B2;" width="6.452" height="6.452"/>
		<path style="fill:#57B6B2;" d="M60.979,164.355c0,5.165-0.406,9.906-1.206,14.097c-1.658,8.655-9.29,14.935-18.148,14.935
			s-16.49-6.281-18.148-14.932c-0.8-4.194-1.206-8.935-1.206-14.1c0-18.139,11.142-24.597,13.61-25.806h11.487
			C49.866,139.774,60.979,146.239,60.979,164.355z"/>
	</g>
	<path style="fill:#007078;" d="M193.548,0v54.839h-64.516V0h-6.452v174.194H87.097c-5.335,0-9.677-4.342-9.677-9.677v-61.29H100
		c8.894,0,16.129-7.235,16.129-16.129V0H0v87.097c0,8.894,7.235,16.129,16.129,16.129h19.355v16.129h-6.452v14.148
		c-4.752,2.697-16.129,11.219-16.129,31.013c0,5.571,0.445,10.719,1.319,15.313C16.461,191.516,26.761,200,38.71,200
		s22.245-8.484,24.487-20.174c0.874-4.59,1.319-9.739,1.319-15.31c0-19.794-11.377-28.316-16.129-31.013v-14.148h-6.452v-16.129
		h29.032v61.29c0,8.894,7.235,16.129,16.129,16.129h35.484V200h6.452v-19.355h9.677c8.894,0,16.129-7.235,16.129-16.129v-9.677
		h38.71V200H200V0H193.548z M35.484,125.806h6.452v6.452h-6.452V125.806z M58.065,164.516c0,5.165-0.406,9.906-1.206,14.097
		c-1.658,8.655-9.29,14.935-18.148,14.935s-16.49-6.281-18.148-14.932c-0.8-4.194-1.206-8.935-1.206-14.1
		c0-18.139,11.142-24.597,13.61-25.806h11.487C46.952,139.935,58.065,146.4,58.065,164.516z M6.452,87.097V6.452h103.226v80.645
		c0,5.335-4.342,9.677-9.677,9.677H16.129C10.794,96.774,6.452,92.432,6.452,87.097z M148.387,164.516
		c0,5.335-4.342,9.677-9.677,9.677h-9.677v-19.355h19.355V164.516z M154.839,148.387v-16.129h-6.452v16.129h-19.355V61.29h38.71
		c5.335,0,9.677,4.342,9.677,9.677v67.742c0,5.335-4.342,9.677-9.677,9.677H154.839z M180.561,148.387
		c2.048-2.703,3.31-6.032,3.31-9.677V70.968c0-3.645-1.261-6.974-3.31-9.677h12.987v87.097H180.561z"/>
	<path style="fill:#57B6B2;" d="M103.226,12.903H12.903v45.161h90.323V12.903z M96.774,51.613H19.355V19.355h77.419V51.613z"/>
	<path style="fill:#57B6B2;" d="M25.806,64.516c-7.116,0-12.903,5.787-12.903,12.903s5.787,12.903,12.903,12.903
		S38.71,84.535,38.71,77.419S32.923,64.516,25.806,64.516z M25.806,83.871c-3.558,0-6.452-2.894-6.452-6.452
		s2.894-6.452,6.452-6.452c3.555,0,6.452,2.894,6.452,6.452S29.361,83.871,25.806,83.871z"/>
	<path style="fill:#57B6B2;" d="M58.065,64.516c-7.116,0-12.903,5.787-12.903,12.903s5.787,12.903,12.903,12.903
		s12.903-5.787,12.903-12.903S65.181,64.516,58.065,64.516z M58.065,83.871c-3.558,0-6.452-2.894-6.452-6.452
		s2.894-6.452,6.452-6.452c3.555,0,6.452,2.894,6.452,6.452S61.619,83.871,58.065,83.871z"/>
	<path style="fill:#57B6B2;" d="M90.323,64.516c-7.116,0-12.903,5.787-12.903,12.903s5.787,12.903,12.903,12.903
		s12.903-5.787,12.903-12.903S97.439,64.516,90.323,64.516z M90.323,83.871c-3.558,0-6.452-2.894-6.452-6.452
		s2.894-6.452,6.452-6.452c3.555,0,6.452,2.894,6.452,6.452S93.877,83.871,90.323,83.871z"/>
</g>
</svg>
