<?xml version="1.0" encoding="iso-8859-1"?>
<!-- Generator: Adobe Illustrator 22.0.1, SVG Export Plug-In . SVG Version: 6.00 Build 0)  -->
<svg version="1.1" id="Layer_1" xmlns="http://www.w3.org/2000/svg" xmlns:xlink="http://www.w3.org/1999/xlink" x="0px" y="0px"
	 viewBox="0 0 200 200" style="enable-background:new 0 0 200 200;" xml:space="preserve">
<g>
	<path style="fill:#57B6B2;" d="M95.448,161.047h13.103c3.06,0,5.55-2.504,5.55-5.582v-11.669h11.482c3.059,0,5.55-2.506,5.55-5.584
		v-13.271c0-3.078-2.491-5.584-5.55-5.584h-11.482v-11.667c0-3.08-2.491-5.584-5.55-5.584H95.448c-3.06,0-5.548,2.504-5.548,5.584
		v11.667H78.416c-3.059,0-5.55,2.506-5.55,5.584v13.271c0,3.079,2.491,5.584,5.55,5.584H89.9v11.669
		C89.9,158.543,92.389,161.047,95.448,161.047L95.448,161.047z M78.725,137.936"/>
	<path style="fill:#57B6B2;" d="M125.263,90.688c-7.503-5.003-16.239-7.648-25.263-7.648c-25.354,0-45.98,20.876-45.98,46.535
		S74.646,176.11,100,176.11c25.352,0,45.98-20.876,45.98-46.535c0-11.925-4.452-23.266-12.537-31.936l-0.189-0.2
		c-1.108-1.179-2.962-1.236-4.141-0.126c-1.179,1.108-1.236,2.962-0.126,4.141l0.172,0.185c7.068,7.58,10.961,17.502,10.961,27.937
		c0,22.429-17.997,40.676-40.121,40.676s-40.119-18.247-40.119-40.676S77.879,88.899,100,88.899c7.862,0,15.474,2.304,22.015,6.665
		c1.345,0.896,3.164,0.534,4.061-0.812C126.973,93.404,126.609,91.586,125.263,90.688L125.263,90.688z M125.263,90.688"/>
	<path style="fill:#007078;" d="M93.448,159.047h13.103c3.06,0,5.55-2.504,5.55-5.582v-11.669h11.482c3.059,0,5.55-2.506,5.55-5.584
		v-13.271c0-3.078-2.491-5.584-5.55-5.584h-11.482v-11.667c0-3.08-2.491-5.584-5.55-5.584H93.448c-3.06,0-5.548,2.504-5.548,5.584
		v11.667H76.416c-3.059,0-5.55,2.506-5.55,5.584v13.271c0,3.079,2.491,5.584,5.55,5.584H87.9v11.669
		C87.9,156.543,90.389,159.047,93.448,159.047L93.448,159.047z M76.725,135.936v-12.72H90.83c1.617,0,2.93-1.312,2.93-2.93v-14.324
		h12.481v14.324c0,1.617,1.312,2.93,2.93,2.93h14.105v12.72H109.17c-1.617,0-2.93,1.311-2.93,2.93v14.322H93.759v-14.322
		c0-1.619-1.312-2.93-2.93-2.93H76.725z M76.725,135.936"/>
	<path style="fill:#007078;" d="M163.476,34.885h-30.909c-1.617,0-2.93,1.311-2.93,2.93c0,1.618,1.312,2.93,2.93,2.93h30.909
		c0.54,0,0.977,0.437,0.977,0.977v147.765c0,2.565-2.045,4.654-4.557,4.654H40.104c-2.512,0-4.557-2.089-4.557-4.656V41.719
		c0-0.538,0.438-0.977,0.977-0.977h39.583v12.343h-0.742c-4.751,0-8.618,3.866-8.618,8.617c0,4.751,3.866,8.618,8.618,8.618h7.343
		c4.751,0,8.617-3.866,8.617-8.618c0-4.751-3.866-8.617-8.617-8.617h-0.742V24.164c0-10.094,8.089-18.305,18.034-18.305
		s18.034,8.211,18.034,18.305v10.719H90.267c-1.617,0-2.93,1.312-2.93,2.93c0,1.62,1.312,2.93,2.93,2.93h27.767v12.343h-0.742
		c-4.751,0-8.617,3.866-8.617,8.617c0,4.751,3.866,8.618,8.617,8.618h7.343c4.751,0,8.618-3.866,8.618-8.618
		c0-4.751-3.866-8.617-8.618-8.617h-0.742V24.164C123.893,10.839,113.174,0,100,0C86.826,0,76.107,10.839,76.107,24.164v10.721
		H36.524c-3.769,0-6.836,3.067-6.836,6.836v147.765c0,5.796,4.673,10.514,10.416,10.514h119.792c5.743,0,10.416-4.717,10.416-10.514
		V41.721C170.312,37.951,167.245,34.885,163.476,34.885L163.476,34.885z M120.964,62.736c1.619,0,2.93-1.312,2.93-2.93v-0.862h0.742
		c1.52,0,2.758,1.238,2.758,2.758c0,1.52-1.238,2.758-2.758,2.758h-7.343c-1.52,0-2.758-1.238-2.758-2.758
		c0-1.52,1.238-2.758,2.758-2.758h0.742v0.862C118.034,61.424,119.346,62.736,120.964,62.736L120.964,62.736z M79.036,62.736
		c1.618,0,2.93-1.312,2.93-2.93v-0.862h0.742c1.52,0,2.758,1.238,2.758,2.758c0,1.52-1.238,2.758-2.758,2.758h-7.343
		c-1.52,0-2.758-1.238-2.758-2.758c0-1.52,1.238-2.758,2.758-2.758h0.742v0.862C76.107,61.424,77.419,62.736,79.036,62.736
		L79.036,62.736z M79.036,62.736"/>
</g>
</svg>
