<?xml version="1.0" encoding="iso-8859-1"?>
<!-- Generator: Adobe Illustrator 22.0.1, SVG Export Plug-In . SVG Version: 6.00 Build 0)  -->
<svg version="1.1" id="Layer_1" xmlns="http://www.w3.org/2000/svg" xmlns:xlink="http://www.w3.org/1999/xlink" x="0px" y="0px"
	 viewBox="107 879.058 200 200" style="enable-background:new 107 879.058 200 200;" xml:space="preserve">
<g>
	<path d="M260.134,967.247c0-6.311-5.148-11.447-11.473-11.447h-21.087c5.123-5.744,8.471-12.285,9.117-18.155
		c0.395-3.584-0.714-7.142-3.047-9.762c-2.131-2.394-5.043-3.729-8.203-3.759c-0.038,0-0.075,0-0.111,0
		c-3.057,0-5.925,1.175-8.09,3.314c-2.165,2.141-3.364,4.993-3.377,8.035c-0.112,0.667-1.286,2.964-4.162,5.691
		c-2.352,2.234-6.419,5.305-12.42,7.25c-2.354,0.762-4.505,2.166-6.394,4.172c-0.991,1.051-2.474,2.506-4.311,3.965
		c-0.902-0.478-1.927-0.749-3.017-0.749h-20.027c-3.566,0-6.467,2.894-6.467,6.451v53.277c0,3.557,2.901,6.451,6.467,6.451h20.027
		c2.43,0,4.551-1.346,5.655-3.329h51.102c5.407,0,9.806-4.389,9.806-9.781c0-1.814-0.498-3.514-1.363-4.972
		c2.817-1.719,4.7-4.818,4.7-8.347c0-1.814-0.498-3.514-1.363-4.972c2.817-1.721,4.7-4.818,4.7-8.349
		c0-2.041-0.629-3.938-1.706-5.509C258.131,974.663,260.134,971.185,260.134,967.247L260.134,967.247z M248.661,972.451h-1.67
		c-1.729,0-3.129,1.398-3.129,3.12c0,1.725,1.401,3.122,3.129,3.122c1.956,0,3.547,1.588,3.547,3.539
		c0,1.95-1.591,3.538-3.547,3.538h-3.337c-1.729,0-3.129,1.398-3.129,3.122c0,1.725,1.401,3.122,3.129,3.122
		c1.956,0,3.545,1.588,3.545,3.539c0,1.951-1.59,3.536-3.545,3.536h-3.339c-1.727,0-3.129,1.398-3.129,3.123
		c0,1.725,1.401,3.122,3.129,3.122c1.955,0,3.547,1.587,3.547,3.538c0,1.951-1.592,3.539-3.547,3.539h-50.29v-30.177
		c0-1.725-1.401-3.122-3.129-3.122c-1.729,0-3.129,1.398-3.129,3.122v33.297c0,0.116-0.094,0.209-0.208,0.209h-20.027
		c-0.114,0-0.208-0.093-0.208-0.209v-53.279c0-0.114,0.094-0.207,0.208-0.207h20.027c0.114,0,0.208,0.093,0.208,0.207v6.66
		c0,1.725,1.401,3.122,3.129,3.122c1.729,0,3.129-1.398,3.129-3.122v-6.66c0-0.15-0.011-0.298-0.023-0.449
		c2.346-1.812,4.223-3.643,5.447-4.944c1.157-1.231,2.424-2.075,3.762-2.506c7.366-2.386,12.323-6.227,15.184-9.03
		c3.585-3.511,5.726-7.174,5.726-9.794c0-1.384,0.541-2.683,1.525-3.654c0.995-0.985,2.314-1.504,3.737-1.506
		c1.753,0.015,2.916,0.911,3.583,1.66c1.142,1.284,1.704,3.128,1.504,4.934c-0.682,6.202-5.654,13.871-12.666,19.533
		c-1.031,0.833-1.424,2.223-0.982,3.468c0.442,1.247,1.624,2.08,2.95,2.08h28.887c2.876,0,5.214,2.333,5.214,5.203
		C253.873,970.116,251.535,972.451,248.661,972.451L248.661,972.451z M248.661,972.451"/>
	<g>
		<defs>
			<rect id="SVGID_1_" x="107" y="879.058" width="200" height="200"/>
		</defs>
		<clipPath id="SVGID_2_">
			<use xlink:href="#SVGID_1_"  style="overflow:visible;"/>
		</clipPath>
		<path style="clip-path:url(#SVGID_2_);" d="M173.545,1002.385c-1.727,0-3.145,1.414-3.145,3.139s1.418,3.138,3.145,3.138
			c1.729,0,3.146-1.413,3.146-3.138S175.274,1002.385,173.545,1002.385L173.545,1002.385z M173.545,1002.385"/>
		<path style="clip-path:url(#SVGID_2_);" d="M301.266,978.903l5.377-14.192c0.39-1.033,0.205-2.194-0.486-3.056l-9.508-11.84
			l0.717-15.152c0.053-1.103-0.482-2.152-1.407-2.757l-12.71-8.328l-4.012-14.633c-0.292-1.065-1.125-1.897-2.192-2.188
			l-14.667-4.003l-8.349-12.678c-0.606-0.922-1.658-1.455-2.762-1.405l-15.19,0.715l-11.868-9.485
			c-0.863-0.69-2.028-0.875-3.063-0.485l-14.223,5.364l-14.224-5.364c-1.037-0.39-2.201-0.205-3.064,0.485l-11.866,9.486
			l-15.19-0.717c-1.111-0.052-2.156,0.483-2.763,1.405l-8.347,12.68l-14.668,4.003c-1.067,0.291-1.9,1.122-2.192,2.187
			l-4.012,14.633l-12.71,8.328c-0.924,0.607-1.46,1.654-1.406,2.757l0.716,15.154l-9.508,11.838
			c-0.692,0.862-0.877,2.023-0.486,3.056l5.377,14.192l-5.377,14.19c-0.391,1.032-0.206,2.194,0.486,3.056l9.507,11.84
			l-0.717,15.154c-0.052,1.101,0.484,2.15,1.408,2.755l12.71,8.33l4.012,14.633c0.292,1.065,1.125,1.896,2.192,2.187l14.668,4.002
			l8.347,12.681c0.608,0.922,1.66,1.453,2.763,1.403l15.19-0.715l11.866,9.486c0.864,0.69,2.028,0.875,3.063,0.483l14.225-5.362
			l14.223,5.362c0.36,0.137,0.734,0.202,1.108,0.202c0.699,0,1.393-0.234,1.955-0.685l11.868-9.486l15.19,0.715
			c1.107,0.049,2.155-0.481,2.762-1.403l8.349-12.681l14.667-4.002c1.068-0.291,1.9-1.124,2.192-2.187l4.012-14.633l12.71-8.33
			c0.925-0.605,1.46-1.655,1.407-2.755l-0.717-15.154l9.508-11.84c0.692-0.862,0.877-2.023,0.486-3.056L301.266,978.903z
			 M294.994,980.005l5.163,13.629l-9.131,11.371c-0.477,0.593-0.721,1.339-0.685,2.099l0.688,14.554l-12.205,7.999
			c-0.637,0.417-1.1,1.052-1.302,1.785l-3.852,14.053l-14.086,3.843c-0.736,0.202-1.372,0.663-1.79,1.299l-8.018,12.177
			l-14.588-0.687c-0.762-0.036-1.509,0.207-2.104,0.683l-11.397,9.11l-13.661-5.151c-0.356-0.135-0.732-0.202-1.105-0.202
			c-0.376,0-0.751,0.069-1.108,0.202l-13.659,5.151l-11.397-9.11c-0.595-0.476-1.344-0.719-2.104-0.683l-14.587,0.687l-8.018-12.177
			c-0.417-0.635-1.054-1.097-1.79-1.299l-14.086-3.843l-3.853-14.053c-0.2-0.734-0.664-1.369-1.3-1.785l-12.205-7.999l0.688-14.554
			c0.036-0.76-0.208-1.506-0.684-2.099l-9.131-11.371l5.163-13.629c0.269-0.711,0.269-1.496,0-2.207l-5.163-13.627l9.131-11.37
			c0.476-0.593,0.72-1.341,0.684-2.099l-0.688-14.553l12.205-7.999c0.636-0.416,1.1-1.051,1.3-1.785l3.853-14.053l14.086-3.844
			c0.734-0.2,1.37-0.662,1.79-1.297l8.018-12.179l14.587,0.688c0.761,0.035,1.51-0.207,2.104-0.682l11.397-9.11l13.659,5.151
			c0.715,0.268,1.5,0.268,2.213,0l13.661-5.151l11.397,9.11c0.595,0.475,1.344,0.718,2.104,0.682l14.588-0.688l8.018,12.179
			c0.418,0.635,1.054,1.097,1.79,1.297l14.086,3.844l3.852,14.053c0.202,0.732,0.665,1.367,1.302,1.785l12.205,7.999l-0.688,14.553
			c-0.036,0.759,0.208,1.506,0.685,2.099l9.131,11.37l-5.163,13.627C294.725,978.509,294.725,979.295,294.994,980.005
			L294.994,980.005z M294.994,980.005"/>
	</g>
	<path d="M265.718,924.998c-0.78-0.846-1.588-1.687-2.401-2.5c-0.816-0.812-1.658-1.618-2.506-2.396
		c-1.273-1.165-3.253-1.082-4.421,0.188c-1.169,1.27-1.085,3.246,0.188,4.411c0.782,0.717,1.561,1.46,2.314,2.211
		c0.751,0.751,1.498,1.527,2.216,2.308c0.616,0.669,1.46,1.01,2.306,1.01c0.755,0,1.513-0.272,2.114-0.822
		C266.8,928.244,266.886,926.268,265.718,924.998L265.718,924.998z M265.718,924.998"/>
	<path d="M249.698,911.584c-15.089-9.591-33.257-13.854-51.155-12.005c-18.159,1.876-35.282,10.017-48.216,22.92
		c-14.233,14.2-22.52,33.066-23.335,53.118c-0.808,19.936,5.809,39.291,18.637,54.5c0.618,0.734,1.504,1.112,2.396,1.112
		c0.711,0,1.426-0.241,2.013-0.734c1.323-1.11,1.492-3.078,0.379-4.398c-11.818-14.013-17.917-31.853-17.172-50.226
		c0.751-18.483,8.387-35.87,21.508-48.957c11.919-11.893,27.701-19.394,44.437-21.124c16.499-1.706,33.244,2.223,47.147,11.06
		c1.458,0.926,3.39,0.5,4.319-0.954C251.584,914.439,251.155,912.509,249.698,911.584L249.698,911.584z M249.698,911.584"/>
	<path d="M274.257,936.085c-0.928-1.454-2.864-1.882-4.321-0.956c-1.458,0.926-1.885,2.856-0.957,4.311
		c8.858,13.871,12.794,30.576,11.087,47.037c-1.734,16.694-9.253,32.44-21.174,44.334c-13.118,13.087-30.545,20.708-49.07,21.455
		c-18.416,0.747-36.297-5.339-50.345-17.13c-1.321-1.11-3.295-0.941-4.408,0.379c-1.113,1.32-0.944,3.288,0.379,4.398
		c14.412,12.096,32.535,18.66,51.353,18.658c1.088,0,2.182-0.021,3.274-0.065c20.101-0.812,39.009-9.081,53.242-23.281
		c12.935-12.903,21.094-29.987,22.973-48.106C288.144,969.263,283.87,951.139,274.257,936.085L274.257,936.085z M274.257,936.085"/>
</g>
</svg>
