<?xml version="1.0" encoding="iso-8859-1"?>
<!-- Generator: Adobe Illustrator 22.0.1, SVG Export Plug-In . SVG Version: 6.00 Build 0)  -->
<svg version="1.1" id="Layer_1" xmlns="http://www.w3.org/2000/svg" xmlns:xlink="http://www.w3.org/1999/xlink" x="0px" y="0px"
	 viewBox="107 1473.118 200 200" style="enable-background:new 107 1473.118 200 200;" xml:space="preserve">
<g>
	<path d="M168.587,1513.2c-1.728,0-3.132,1.402-3.132,3.132c0,3.8-3.09,6.89-6.89,6.89c-3.797,0-6.889-3.09-6.889-6.89
		c0-3.797,3.092-6.889,6.889-6.889c1.73,0,3.132-1.402,3.132-3.132s-1.402-3.132-3.132-3.132c-7.251,0-13.151,5.901-13.151,13.153
		c0,7.252,5.899,13.153,13.151,13.153c7.252,0,13.153-5.901,13.153-13.153C171.719,1514.602,170.317,1513.2,168.587,1513.2
		L168.587,1513.2z M168.587,1513.2"/>
	<path d="M168.587,1549.943c-1.728,0-3.132,1.402-3.132,3.132c0,3.8-3.09,6.89-6.89,6.89c-3.797,0-6.889-3.09-6.889-6.89
		c0-3.799,3.092-6.889,6.889-6.889c1.73,0,3.132-1.402,3.132-3.132s-1.402-3.132-3.132-3.132c-7.251,0-13.151,5.901-13.151,13.153
		c0,7.252,5.899,13.153,13.151,13.153c7.252,0,13.153-5.901,13.153-13.153C171.719,1551.345,170.317,1549.943,168.587,1549.943
		L168.587,1549.943z M168.587,1549.943"/>
	<path d="M205.33,1556.625h-23.382c-1.728,0-3.132,1.402-3.132,3.132c0,1.73,1.402,3.132,3.132,3.132h23.382
		c1.73,0,3.132-1.402,3.132-3.132C208.462,1558.027,207.06,1556.625,205.33,1556.625L205.33,1556.625z M205.33,1556.625"/>
	<path d="M205.33,1543.264h-23.382c-1.728,0-3.132,1.402-3.132,3.132c0,1.728,1.402,3.132,3.132,3.132h23.382
		c1.73,0,3.132-1.404,3.132-3.132C208.462,1544.666,207.06,1543.264,205.33,1543.264L205.33,1543.264z M205.33,1543.264"/>
	<path d="M198.65,1593.368h-16.703c-1.728,0-3.132,1.402-3.132,3.132s1.402,3.132,3.132,3.132h16.703
		c1.728,0,3.132-1.402,3.132-3.132S200.378,1593.368,198.65,1593.368L198.65,1593.368z M198.65,1593.368"/>
	<path d="M205.33,1580.007h-23.382c-1.728,0-3.132,1.402-3.132,3.132s1.402,3.132,3.132,3.132h23.382
		c1.73,0,3.132-1.402,3.132-3.132S207.06,1580.007,205.33,1580.007L205.33,1580.007z M205.33,1580.007"/>
	<path d="M235.393,1519.882h-53.446c-1.728,0-3.132,1.402-3.132,3.132s1.402,3.132,3.132,3.132h53.446
		c1.728,0,3.13-1.402,3.13-3.132S237.121,1519.882,235.393,1519.882L235.393,1519.882z M235.393,1519.882"/>
	<path d="M222.033,1506.521h-40.085c-1.728,0-3.132,1.402-3.132,3.132c0,1.728,1.402,3.13,3.132,3.13h40.085
		c1.728,0,3.13-1.402,3.13-3.13C225.163,1507.923,223.761,1506.521,222.033,1506.521L222.033,1506.521z M222.033,1506.521"/>
	<path d="M168.587,1586.686c-1.728,0-3.132,1.402-3.132,3.132c0,3.8-3.09,6.89-6.89,6.89c-3.797,0-6.889-3.09-6.889-6.89
		c0-3.797,3.092-6.889,6.889-6.889c1.73,0,3.132-1.402,3.132-3.132s-1.402-3.132-3.132-3.132c-7.251,0-13.151,5.901-13.151,13.153
		c0,7.252,5.899,13.153,13.151,13.153c7.252,0,13.153-5.901,13.153-13.153C171.719,1588.088,170.317,1586.686,168.587,1586.686
		L168.587,1586.686z M168.587,1586.686"/>
	<path d="M248.755,1473.118H135.184c-5.409,0-9.811,4.402-9.811,9.812v140.292c0,5.412,4.402,9.812,9.811,9.812h56.785
		c1.73,0,3.132-1.402,3.132-3.132c0-1.728-1.402-3.132-3.132-3.132h-56.785c-1.957,0-3.548-1.591-3.548-3.548v-140.292
		c0-1.957,1.591-3.547,3.548-3.547h113.571c1.957,0,3.549,1.59,3.549,3.547v103.549c0,1.73,1.402,3.132,3.13,3.132
		c1.73,0,3.132-1.402,3.132-3.132v-103.549C258.566,1477.52,254.164,1473.118,248.755,1473.118L248.755,1473.118z M248.755,1473.118
		"/>
	<path d="M278.32,1600.107c-2.911-0.29-5.819,0.536-8.122,2.283c-1.834-3.076-4.963-5.26-8.581-5.623
		c-2.911-0.29-5.819,0.536-8.122,2.283c-1.833-3.079-4.961-5.261-8.579-5.623c-2.222-0.223-4.442,0.206-6.394,1.198v-39.879
		c0-3.239-1.377-6.342-3.778-8.516c-2.401-2.171-5.636-3.231-8.877-2.907c-5.781,0.578-10.309,5.806-10.309,11.9v39.98l-9.205,9.205
		c-4.893,4.893-6.867,11.833-5.282,18.568l6.989,29.701c2.832,12.035,13.445,20.441,25.808,20.441h28.246
		c14.62,0,26.512-11.894,26.512-26.514v-34.595C288.629,1605.912,284.101,1600.686,278.32,1600.107L278.32,1600.107z
		 M282.365,1646.604c0,11.166-9.084,20.25-20.25,20.25H233.87c-9.443,0-17.549-6.42-19.712-15.614l-6.988-29.701
		c-1.083-4.608,0.267-9.357,3.614-12.703l4.776-4.778v10.813c0,1.728,1.402,3.132,3.132,3.132s3.132-1.402,3.132-3.132v-59.648
		c0-2.917,2.052-5.407,4.671-5.669c1.503-0.15,2.943,0.319,4.049,1.32c1.093,0.988,1.718,2.399,1.718,3.872v55.115
		c0,1.73,1.402,3.132,3.132,3.132s3.132-1.402,3.132-3.132v-5.011c0-1.472,0.626-2.882,1.719-3.872
		c1.108-1.001,2.544-1.471,4.049-1.32c2.619,0.263,4.671,2.752,4.671,5.668v7.873c0,1.73,1.402,3.132,3.132,3.132
		c1.728,0,3.13-1.402,3.13-3.132v-5.011c0-1.472,0.628-2.884,1.721-3.872c1.106-1.001,2.544-1.471,4.049-1.32
		c2.619,0.261,4.669,2.752,4.669,5.668v7.874c0,1.73,1.402,3.132,3.132,3.132s3.132-1.402,3.132-3.132v-5.011
		c0-1.472,0.626-2.884,1.719-3.872c1.108-1.001,2.544-1.47,4.049-1.32c2.619,0.262,4.671,2.752,4.671,5.669v34.597H282.365z
		 M282.365,1646.604"/>
</g>
</svg>
