<?xml version="1.0" encoding="iso-8859-1"?>
<!-- Generator: Adobe Illustrator 22.0.1, SVG Export Plug-In . SVG Version: 6.00 Build 0)  -->
<svg version="1.1" id="Layer_1" xmlns="http://www.w3.org/2000/svg" xmlns:xlink="http://www.w3.org/1999/xlink" x="0px" y="0px"
	 viewBox="0 0 200 200" style="enable-background:new 0 0 200 200;" xml:space="preserve">
<g>
	<path style="fill:#57B6B2;" d="M195.774,138.197c-3.429-3.068-7.952-4.939-12.903-4.939H8.677v-25.806h6.452v6.452h6.452v-6.452
		h6.452v6.452h6.452v-6.452h6.452v6.452h6.452v-6.452h6.452v6.452h6.452v-6.452h6.452v6.452h6.452v-6.452h6.452v6.452h6.452v-6.452
		h6.452v6.452H99v-6.452h6.452v6.452h6.452v-6.452h6.452v6.452h6.452v-6.452h6.452v6.452h6.452v-6.452h6.452v6.452h6.452v-6.452
		h6.452v6.452h6.452v-6.452h6.452v6.452h6.452v-6.452h6.452v9.677h6.452v-7.884c3.839,2.239,6.452,6.355,6.452,11.11V138.197z"/>
	<path style="fill:#57B6B2;" d="M100,54.839c5.335,0,9.677-4.342,9.677-9.677c0-4.2-2.706-7.748-6.452-9.084V12.903h-6.452v23.174
		c-3.748,1.335-6.452,4.884-6.452,9.084C90.323,50.497,94.665,54.839,100,54.839z M100,41.935c1.781,0,3.226,1.445,3.226,3.226
		c0,1.781-1.445,3.226-3.226,3.226c-1.781,0-3.226-1.445-3.226-3.226C96.774,43.381,98.219,41.935,100,41.935z"/>
	<path style="fill:#007078;" d="M180.645,100h-1.148l0.981-8.129c0.11-0.9,0.168-1.806,0.168-2.716V61.29
		c0-12.448-10.132-22.581-22.581-22.581h-13.419C141.5,16.861,122.706,0,100,0S58.5,16.861,55.355,38.71H41.935
		c-12.448,0-22.581,10.132-22.581,22.581v27.865c0,0.91,0.058,1.819,0.165,2.716L20.503,100H0v38.71h25.197l5.019,41.426
		C31.59,191.461,41.226,200,52.632,200h94.732c11.406,0,21.042-8.539,22.416-19.865l1.113-9.168h9.752
		c10.674,0,19.355-8.681,19.355-19.355v-32.258C200,108.681,191.319,100,180.645,100z M100,6.452c21.345,0,38.71,17.365,38.71,38.71
		s-17.365,38.71-38.71,38.71s-38.71-17.365-38.71-38.71S78.655,6.452,100,6.452z M25.923,91.09c-0.077-0.642-0.116-1.29-0.116-1.935
		V61.29c0-8.894,7.235-16.129,16.129-16.129h12.903c0,24.903,20.258,45.161,45.161,45.161s45.161-20.258,45.161-45.161h12.903
		c8.894,0,16.129,7.235,16.129,16.129v27.865c0,0.645-0.039,1.294-0.119,1.942L172.997,100H27.003L25.923,91.09z M163.374,179.361
		c-0.977,8.087-7.861,14.187-16.006,14.187H52.632c-8.145,0-15.029-6.1-16.01-14.187l-4.926-40.652h136.606L163.374,179.361z
		 M180.645,164.516h-8.968l3.129-25.806h5.839c7.116,0,12.903,5.787,12.903,12.903S187.761,164.516,180.645,164.516z
		 M193.548,137.197c-3.429-3.068-7.952-4.939-12.903-4.939H6.452v-25.806h6.452v6.452h6.452v-6.452h6.452v6.452h6.452v-6.452h6.452
		v6.452h6.452v-6.452h6.452v6.452h6.452v-6.452h6.452v6.452h6.452v-6.452h6.452v6.452h6.452v-6.452h6.452v6.452h6.452v-6.452h6.452
		v6.452h6.452v-6.452h6.452v6.452h6.452v-6.452h6.452v6.452h6.452v-6.452h6.452v6.452h6.452v-6.452h6.452v6.452h6.452v-6.452h6.452
		v6.452h6.452v-6.452h6.452v9.677h6.452v-7.884c3.839,2.239,6.452,6.355,6.452,11.11V137.197z"/>
</g>
</svg>
