<?xml version="1.0" encoding="iso-8859-1"?>
<!-- Generator: Adobe Illustrator 22.0.1, SVG Export Plug-In . SVG Version: 6.00 Build 0)  -->
<svg version="1.1" id="Layer_1" xmlns="http://www.w3.org/2000/svg" xmlns:xlink="http://www.w3.org/1999/xlink" x="0px" y="0px"
	 viewBox="0 0 200 200" style="enable-background:new 0 0 200 200;" xml:space="preserve">
<g>
	<path style="fill:#57B6B2;" d="M126.887,129.566c4.49,5.854,9.437,13.588,9.437,16.967c0,3.623-2.054,6.774-5.057,8.355v-6.165
		h-6.14v7.08c-4.365-0.827-7.677-4.668-7.677-9.27C117.45,143.154,122.397,135.42,126.887,129.566z M109.422,195.546h-0.001
		c-9.317,0-17.07-6.809-18.556-15.711h3.15v-6.14h-3.163c1.456-8.938,9.226-15.783,18.569-15.783
		c8.163,0,15.126,5.227,17.726,12.508h-5.295v6.14h6.383c0,0.056,0.004,0.112,0.004,0.169
		C128.238,187.104,119.797,195.545,109.422,195.546z M139.884,168.886c-3.436,0-6.448-1.831-8.099-4.607h11.762v-6.14h-6.284
		c2.237-2.003,3.894-4.64,4.683-7.627c3.855,1.274,10.055,5.267,14.894,8.978C150.987,163.98,143.263,168.886,139.884,168.886z"/>
	<rect x="69.869" y="102.826" style="fill:#57B6B2;" width="6.14" height="6.14"/>
	<path style="fill:#57B6B2;" d="M45.309,71.716h49.532V43.471H45.309V71.716z M51.449,49.611H88.7v15.965H51.449V49.611z"/>
	<path style="fill:#007078;" d="M161.689,155.489c-2.396-2.001-13.663-11.233-21.543-12.947
		c-1.722-7.793-10.943-19.155-12.943-21.549l-2.357-2.823l-2.357,2.823c-2.208,2.644-13.221,16.221-13.221,23.855
		c0,1.9,0.343,3.721,0.969,5.406c-0.938-0.108-1.89-0.168-2.856-0.168c-1.059,0-2.101,0.074-3.125,0.203v-39.036l-6.14-6.253V91.875
		l6.14-6.254l-0.058-47.882l0.058-8.744l-18.83-6.253v-0.968h3.139V0H51.155v21.774h3.159v0.968l-18.83,6.253v8.744v47.882
		l6.14,6.254v13.124l-6.14,6.253v88.586l71.89,0.163v0c0.002,0,0.004,0,0.007,0c13.762,0,24.958-11.196,24.958-24.958
		c0-0.941-0.057-1.869-0.159-2.784c1.757,0.695,3.666,1.082,5.665,1.082c7.634,0,21.208-10.972,23.852-13.18l2.82-2.316
		L161.689,155.489z M124.846,127.881c4.49,5.854,9.437,13.588,9.437,16.967c0,3.623-2.054,6.774-5.057,8.355v-6.165h-6.14v7.08
		c-4.365-0.827-7.677-4.668-7.677-9.27C115.41,141.469,120.357,133.735,124.846,127.881z M93.628,87.681H46.112l-4.487-4.57v-1.928
		h56.491v1.928L93.628,87.681z M41.662,75.043V40.535h56.395v34.508H41.662z M57.296,6.14h25.128v9.493H57.296V6.14z M60.455,27.173
		v-5.399h18.83v5.399l18.83,6.253v0.968H41.624v-0.968L60.455,27.173z M41.624,193.711v-6.147H63.32v-6.14H41.624v-34.795h12.69
		v-6.14h-12.69v-26.726l4.708-4.795H63.32v-6.14H47.765v-9.006h44.21v13.687l6.14,6.253v7.895H63.32v6.14h34.795v12.69H60.455v6.14
		h37.661v5.248c-9.186,3.687-15.692,12.679-15.692,23.167c0,7.483,3.315,14.202,8.547,18.78L41.624,193.711z M107.382,193.86h-0.001
		c-9.317,0-17.07-6.809-18.556-15.711h3.15v-6.14h-3.163c1.456-8.938,9.226-15.783,18.569-15.783
		c8.163,0,15.126,5.227,17.726,12.508h-5.295v6.14h6.383c0,0.056,0.004,0.112,0.004,0.169
		C126.198,185.419,117.757,193.86,107.382,193.86z M137.844,167.201c-3.436,0-6.448-1.831-8.099-4.607h11.762v-6.14h-6.284
		c2.237-2.003,3.894-4.64,4.683-7.627c3.855,1.274,10.055,5.267,14.894,8.978C148.947,162.295,141.223,167.201,137.844,167.201z"/>
</g>
</svg>
