<?xml version="1.0" encoding="utf-8"?>
<!-- Generator: Adobe Illustrator 16.0.0, SVG Export Plug-In . SVG Version: 6.00 Build 0)  -->
<!DOCTYPE svg PUBLIC "-//W3C//DTD SVG 1.1//EN" "http://www.w3.org/Graphics/SVG/1.1/DTD/svg11.dtd">
<svg version="1.1" id="Layer_1" xmlns="http://www.w3.org/2000/svg" xmlns:xlink="http://www.w3.org/1999/xlink" x="0px" y="0px"
	 width="620px" height="198.426px" viewBox="0 0 620 198.426" enable-background="new 0 0 620 198.426" xml:space="preserve">
<g>
	<path fill-rule="evenodd" clip-rule="evenodd" fill="#1866AC" d="M41.499,11.585h110.416h5.833c8.168,0,14.851,7.072,14.851,15.714
		v7.512c0,10.617-14.385,10.579-14.385,0.071v-4.103c0-2.61-2.135-4.744-4.745-4.744H36.98c-2.609,0-4.744,2.134-4.744,4.744v4.02
		c0,10.561-13.709,10.485-13.709,0.228v-7.728c0-8.642,6.683-15.714,14.849-15.714H41.499L41.499,11.585z M94.799,186.841h75.392
		c17.217,0,17.387-18.298,15.635-27.33c-0.958-6.072-11.275-6.022-12.412,0v7.047c0,3.22-2.635,5.856-5.857,5.856H94.799h-5.817
		h-65.97c-3.221,0-5.856-2.637-5.856-5.856v-7.047c-1.137-6.022-11.454-6.072-12.413,0c-1.751,9.032-1.582,27.33,15.635,27.33
		h68.604H94.799z"/>
	<path fill-rule="evenodd" clip-rule="evenodd" fill="#373536" d="M141.406,92.051h12.021v-0.135c5.474-0.841,9.7-5.599,9.7-11.297
		l0,0c0-6.288-5.145-11.432-11.432-11.432h-24.21v59.771h30.702c6.493,0,11.805-5.313,11.805-11.805l0,0
		c0-6.493-5.312-11.806-11.805-11.806h-4.761v-0.026h-12.021c-3.648,0-6.635-2.986-6.635-6.636l0,0
		C134.771,95.035,137.758,92.051,141.406,92.051L141.406,92.051z M169.664,97.915c8.051,3.789,13.61,11.607,13.61,20.584l0,0
		c0,12.657-11.051,23.012-24.56,23.012h-37.857c-3.541,0-6.439-2.715-6.439-6.034V63.451c0-3.475,2.848-6.319,6.325-6.319h31.534
		c13.273,0,24.133,10.85,24.133,24.108l0,0C176.41,87.695,173.835,93.577,169.664,97.915z"/>
	<path fill="#373536" d="M108.404,134.315c0.443,4.171-2.58,7.914-6.752,8.357c-4.171,0.443-7.913-2.578-8.356-6.752l-6.225-57.28
		l-22.05,56.007L65,134.7l-0.002,0.006v0.003l-0.061,0.149l-0.049,0.116l-0.013,0.026l-0.053,0.117l-0.032,0.069l-0.053,0.111
		l-0.025,0.05l-0.059,0.113l-0.021,0.041c-0.407,0.768-0.93,1.442-1.542,2.009l-0.022,0.021l-0.114,0.102
		c-0.397,0.354-0.837,0.663-1.313,0.932l-0.033,0.018l-0.144,0.079l-0.006,0.003l-0.134,0.066l-0.061,0.032l-0.085,0.041
		l-0.091,0.041l-0.08,0.038l-0.095,0.041l-0.082,0.035l-0.078,0.031l-0.069,0.026l-0.04,0.018l-0.064,0.023l-0.102,0.038
		l-0.058,0.018c-0.735,0.257-1.483,0.394-2.227,0.423l-0.09,0.003H58H57.92h-0.078h-0.105l-0.096-0.003
		c-0.83-0.032-1.669-0.198-2.487-0.52l-0.103-0.041l-0.025-0.012l-0.101-0.04l-0.1-0.044l-0.079-0.035l-0.085-0.041l-0.091-0.044
		l-0.052-0.026l-0.139-0.069l-0.014-0.009l-0.119-0.064l-0.066-0.035c-0.417-0.236-0.804-0.505-1.161-0.806l-0.028-0.026
		c-0.085-0.073-0.168-0.146-0.251-0.222l-0.005-0.006c-0.064-0.059-0.127-0.12-0.189-0.181c-0.062-0.064-0.124-0.126-0.184-0.19
		l-0.005-0.006c-0.076-0.081-0.149-0.166-0.223-0.251l-0.025-0.029c-0.3-0.355-0.57-0.744-0.805-1.161l-0.038-0.064l-0.064-0.12
		l-0.007-0.015l-0.071-0.137L51.1,135.29l-0.043-0.091l-0.041-0.087l-0.036-0.079l-0.044-0.1l-0.042-0.099l-0.01-0.026l-0.042-0.103
		L28.77,78.641l-6.226,57.28c-0.443,4.174-4.185,7.195-8.357,6.752c-4.172-0.443-7.194-4.187-6.75-8.357l7.339-67.531l0.002-0.019
		l0.004-0.029l-0.004-0.001c0.088-0.786,0.255-1.568,0.494-2.337c0.231-0.746,0.542-1.481,0.923-2.198
		c1.874-3.522,5.322-5.99,9.438-6.56l0.015-0.002c0.138-0.021,0.277-0.035,0.415-0.047c0.645-0.066,1.285-0.084,1.916-0.057
		l0.03,0.002v-0.002c0.821,0.04,1.589,0.142,2.296,0.309c3.926,0.915,7.26,3.646,8.83,7.634l18.787,47.717l18.787-47.717
		c1.57-3.988,4.904-6.719,8.829-7.634c0.708-0.167,1.475-0.269,2.297-0.309v0.002l0.031-0.002c0.631-0.027,1.274-0.01,1.919,0.057
		c0.137,0.012,0.273,0.026,0.41,0.047l0.015,0.002c4.114,0.569,7.563,3.037,9.438,6.56c0.381,0.717,0.691,1.452,0.922,2.198
		c0.239,0.768,0.406,1.55,0.493,2.337l-0.003,0.001l0.003,0.029l0.003,0.019L108.404,134.315z"/>
	<g>
		<path fill="#373536" d="M297.018,81.146c0-2.526,2.051-4.575,4.577-4.575s4.576,2.049,4.576,4.575v24.749v0.008h-0.017
			c-0.003,5.659-2.317,10.796-6.04,14.522c-3.709,3.707-8.841,6.01-14.495,6.015v0.02h-0.009h-0.007v-0.02
			c-5.659,0-10.797-2.313-14.523-6.039c-3.708-3.71-6.011-8.839-6.014-14.492h-0.02v-0.014V81.146c0-2.526,2.054-4.575,4.58-4.575
			c2.525,0,4.573,2.049,4.573,4.575v24.749v0.014h-0.017c0.004,3.126,1.294,5.978,3.372,8.058c2.066,2.065,4.917,3.354,8.048,3.354
			v-0.015h0.007h0.009v0.015c3.126,0,5.982-1.293,8.059-3.368c2.07-2.069,3.356-4.918,3.356-8.05h-0.017v-0.008V81.146z"/>
		<path fill="#373536" d="M340.267,117.306c2.527,0,4.573,2.05,4.573,4.575c0,2.527-2.046,4.578-4.573,4.578h-12.634h-0.006v-0.02
			c-4.738,0-9.039-1.939-12.154-5.053c-3.1-3.105-5.027-7.395-5.03-12.126h-0.018v-0.013V81.146c0-2.526,2.047-4.575,4.573-4.575
			s4.58,2.049,4.58,4.575v28.103v0.013h-0.019c0,2.2,0.913,4.218,2.385,5.688c1.461,1.461,3.476,2.371,5.683,2.371v-0.015h0.006
			H340.267z"/>
		<path fill="#373536" d="M263.35,121.347c0.296,2.506-1.497,4.778-4.001,5.075c-2.511,0.294-4.783-1.497-5.081-4.005l-3.921-32.954
			l-13.983,32.422c-0.993,2.318-3.686,3.393-6.006,2.396c-1.12-0.479-1.947-1.358-2.391-2.396h-0.004l-13.979-32.422l-3.927,32.954
			c-0.295,2.508-2.569,4.299-5.076,4.005c-2.507-0.297-4.301-2.569-4.005-5.075l4.555-38.267c0.296-2.496,1.818-4.55,3.997-5.675
			c0.291-0.15,0.586-0.283,0.889-0.398c0.118-0.047,0.233-0.085,0.354-0.125c0.391-0.121,0.84-0.22,1.351-0.29v0.005l0.032-0.005
			l0.043-0.006c2.388-0.303,4.744,0.471,6.393,2.021c0.329,0.313,0.645,0.67,0.931,1.071c0.197,0.277,0.38,0.564,0.538,0.86
			c0.092,0.164,0.177,0.331,0.252,0.51l11.854,27.482l11.852-27.482c0.98-2.268,2.992-3.817,5.353-4.338
			c0.451-0.098,0.904-0.164,1.347-0.184c0.338-0.017,0.673-0.017,0.992,0.004l0.033,0.003l0,0c0.112,0.008,0.224,0.016,0.335,0.03
			l0.038,0.007l-0.004,0.012l0.02,0.004c2.447,0.31,4.526,1.685,5.698,3.656h-0.003c0.247,0.41,0.444,0.848,0.605,1.305
			c0.102,0.287,0.187,0.583,0.249,0.895c0.049,0.195,0.086,0.396,0.109,0.6l0.007,0.039L263.35,121.347z"/>
		<path fill="#373536" d="M360.258,121.881c0,2.527-2.05,4.578-4.576,4.578c-2.523,0-4.577-2.051-4.577-4.578V85.723h-13.017
			c-2.529,0-4.579-2.05-4.579-4.577c0-2.526,2.05-4.575,4.579-4.575h17.594h17.599c2.527,0,4.573,2.049,4.573,4.575
			c0,2.527-2.046,4.577-4.573,4.577h-13.022V121.881z"/>
		<path fill="#373536" d="M388.803,121.881c0,2.527-2.05,4.578-4.58,4.578c-2.525,0-4.572-2.051-4.572-4.578V81.146
			c0-2.526,2.047-4.575,4.572-4.575c2.53,0,4.58,2.049,4.58,4.575V121.881z"/>
		<path fill="#373536" d="M482.678,121.326c0.307,2.507-1.48,4.79-3.986,5.096c-2.508,0.306-4.788-1.48-5.095-3.987l-1.609-12.924
			h-15.856c-2.527,0-4.578-2.049-4.578-4.577c0-2.526,2.051-4.576,4.578-4.576h14.72l-0.418-3.355l-0.006-0.04
			c-0.015-0.105-0.023-0.215-0.027-0.318c-0.118-0.768-0.293-1.55-0.529-2.337c-0.267-0.886-0.582-1.698-0.941-2.414
			c-1.816-3.625-5.1-6.17-9.255-6.17l0,0h-0.042v-0.017c-0.794,0-1.566,0.1-2.305,0.276c-0.687,0.165-1.371,0.425-2.044,0.766
			c-3.51,1.788-5.861,5.696-6.368,10.197l-2.862,25.437c-0.276,2.506-2.537,4.316-5.044,4.04c-2.504-0.276-4.313-2.536-4.037-5.043
			l2.862-25.435c0.846-7.507,5.014-14.149,11.306-17.35c1.236-0.627,2.589-1.131,4.044-1.479c1.407-0.343,2.895-0.524,4.448-0.527
			V76.57h0.042l0,0c7.935,0,14.099,4.635,17.404,11.244c0.639,1.274,1.158,2.573,1.551,3.884c0.353,1.167,0.618,2.415,0.803,3.725
			c0.032,0.141,0.059,0.285,0.075,0.431l0.007,0.036L482.678,121.326z"/>
		<path fill="#373536" d="M496.688,121.881c0,2.527-2.049,4.578-4.576,4.578s-4.577-2.051-4.577-4.578v-37.84v-0.016
			c0-0.264,0.021-0.523,0.063-0.773c0.063-0.517,0.188-1.01,0.362-1.484l0.005-0.014l-0.005-0.003
			c0.096-0.253,0.224-0.525,0.379-0.818l0.009-0.014l-0.009-0.003c0.763-1.389,2.006-2.465,3.572-3.005
			c0.207-0.068,0.417-0.126,0.628-0.167c0.166-0.04,0.327-0.073,0.486-0.096l0.037-0.006v-0.014
			c0.305-0.046,0.674-0.064,1.095-0.056h0.032h0.083h0.004c1.875,0.075,3.63,0.943,4.836,2.482l24.357,31.061V81.146
			c0-2.526,2.05-4.575,4.577-4.575c2.526,0,4.577,2.049,4.577,4.575v37.673c0,1.99-0.896,3.791-2.39,5.012
			c-0.283,0.229-0.596,0.443-0.935,0.631c-0.18,0.103-0.371,0.194-0.568,0.279l-0.051,0.023l-0.009,0.004
			c-0.121,0.055-0.248,0.108-0.379,0.154l-0.013,0.007v-0.007h-0.003l-0.003-0.004l-0.03,0.011
			c-1.662,0.573-3.405,0.451-4.906-0.277c-0.2-0.084-0.395-0.188-0.588-0.306c-0.313-0.19-0.619-0.42-0.909-0.677
			c-0.181-0.162-0.378-0.365-0.582-0.613l-0.151-0.175l-0.009-0.008l0.002-0.004l-0.056-0.069l-24.357-31.056V121.881z"/>
		<path fill="#373536" d="M568.164,117.306c2.527,0,4.576,2.05,4.576,4.575c0,2.527-2.049,4.578-4.576,4.578h-13.482h-0.008v-0.02
			c-4.967,0-9.485-2.034-12.752-5.306c-3.255-3.254-5.279-7.761-5.284-12.726h-0.017v-0.01V94.63v-0.009h0.017
			c0.004-4.966,2.033-9.484,5.304-12.751c3.257-3.254,7.761-5.278,12.727-5.281V76.57h0.014h13.482c2.527,0,4.576,2.049,4.576,4.575
			c0,2.527-2.049,4.577-4.576,4.577h-13.482h-0.014v-0.017c-2.436,0-4.666,1.011-6.291,2.635c-1.616,1.616-2.619,3.841-2.619,6.28
			h0.017v0.009v13.769v0.01h-0.017c0,2.438,1.01,4.668,2.637,6.291c1.614,1.616,3.838,2.621,6.279,2.621v-0.015h0.008H568.164z"/>
		<path fill="#373536" d="M594.636,76.57h0.009v0.019c5.835,0,11.146,2.3,14.999,5.999c3.896,3.744,6.314,8.93,6.316,14.653h0.017
			v0.011v8.525v0.002h-0.017c-0.002,5.729-2.421,10.917-6.319,14.661c-3.85,3.698-9.157,5.994-14.99,5.999v0.02h-0.015h-0.004v-0.02
			c-5.835,0-11.146-2.301-14.999-6.003c-3.891-3.74-6.313-8.926-6.317-14.65H573.3v-0.009v-8.525v-0.007h0.016
			c0.004-5.725,2.427-10.917,6.324-14.657c3.85-3.699,9.157-5.996,14.986-5.999V76.57H594.636L594.636,76.57z M594.645,85.706v0.017
			h-0.009h-0.01v-0.017c-3.372,0-6.442,1.325-8.658,3.458c-2.18,2.092-3.53,4.956-3.534,8.081h0.02v0.007v8.525v0.009h-0.02
			c0.004,3.122,1.354,5.981,3.524,8.074c2.226,2.132,5.296,3.46,8.674,3.46v-0.015h0.004h0.015v0.015
			c3.375,0,6.441-1.324,8.662-3.46c2.176-2.088,3.531-4.952,3.531-8.081h-0.017v-0.002v-8.525v-0.011h0.017
			c-0.004-3.125-1.355-5.985-3.528-8.074C601.092,87.031,598.021,85.706,594.645,85.706z"/>
		<path fill="#373536" d="M392.644,101.225V81.347v-0.004c0-0.647,0.136-1.263,0.374-1.819c0.247-0.595,0.609-1.131,1.063-1.572
			l0.054-0.053v-0.003c0.774-0.74,1.803-1.237,3.005-1.307c0.09-0.007,0.179-0.013,0.268-0.01V76.57h0.013h17.636h0.007v0.019
			c4.023,0,7.68,1.646,10.321,4.29c2.632,2.633,4.268,6.275,4.271,10.297h0.02v0.008v0.004v0.003h-0.02
			c0,2.85-0.828,5.512-2.248,7.763c0.941,0.596,1.814,1.289,2.596,2.072c0.101,0.099,0.191,0.199,0.28,0.306
			c2.518,2.658,4.071,6.258,4.073,10.21h0.02v0.014l0,0v0.007h-0.02c0,4.099-1.674,7.826-4.377,10.524
			c-2.68,2.682-6.396,4.349-10.493,4.354v0.02h-0.015h-22.252c-2.526,0-4.575-2.051-4.575-4.578V101.225L392.644,101.225z
			 M401.793,85.723v15.502v16.081h17.678h0.015v0.015c1.569,0,3.006-0.652,4.059-1.706c1.046-1.044,1.695-2.481,1.695-4.053h-0.018
			v-0.007l0,0v-0.014h0.018c0-1.477-0.583-2.844-1.53-3.876l-0.178-0.168c-1.053-1.056-2.49-1.711-4.055-1.711v0.017h-0.006h-4.403
			h-0.012h-1.672c-2.523,0-4.576-2.058-4.576-4.578l0,0c0-2.519,2.053-4.575,4.576-4.575h1.672h0.012h0.399
			c1.323-0.103,2.534-0.697,3.444-1.605l0.008,0.007l0.009-0.007c0.99-0.994,1.609-2.356,1.609-3.854h-0.016v-0.003v-0.004v-0.008
			h0.016c0-1.491-0.623-2.86-1.626-3.86c-0.988-0.99-2.355-1.609-3.849-1.609v0.017h-0.007H401.793z"/>
	</g>
</g>
</svg>
