<?xml version="1.0" encoding="utf-8"?>
<!-- Generator: Adobe Illustrator 22.0.1, SVG Export Plug-In . SVG Version: 6.00 Build 0)  -->
<svg version="1.1" id="Layer_1" xmlns="http://www.w3.org/2000/svg" xmlns:xlink="http://www.w3.org/1999/xlink" x="0px" y="0px"
	 viewBox="0 0 272 400" style="enable-background:new 0 0 272 400;" xml:space="preserve">
<style type="text/css">
	.st0{fill:#A7A8A9;}
	.st1{fill:none;stroke:#CBC3BB;stroke-width:5;stroke-linecap:round;stroke-linejoin:round;stroke-miterlimit:10;}
	.st2{fill:#007078;}
	.st3{fill:none;stroke:#A7A8A9;stroke-width:3;stroke-linecap:round;stroke-linejoin:round;stroke-miterlimit:10;}
</style>
<g>
	<g>
		<path class="st0" d="M194.7,252.8h-1.9l1.1-5.1c0.1-0.6,0.3-1.2,0.5-1.8c0,0-0.2,0.1-0.4,0.3c-0.2,0.2-0.7,0.5-1.6,1l-0.8-1.3
			l3.5-2.1h1.5L194.7,252.8z"/>
		<path class="st0" d="M206.8,246.7c0,1.1-0.2,2.2-0.6,3.3c-0.4,1-0.9,1.8-1.6,2.3c-0.7,0.5-1.5,0.7-2.5,0.7c-0.5,0-1-0.1-1.5-0.2
			v-1.6c0.5,0.2,0.9,0.3,1.4,0.3c0.5,0,0.9-0.1,1.3-0.3c0.4-0.2,0.6-0.5,0.9-0.8c0.2-0.4,0.4-0.9,0.6-1.6h0c-0.5,0.6-1.1,1-1.8,1
			c-0.7,0-1.2-0.2-1.5-0.6c-0.4-0.4-0.5-1-0.5-1.7c0-0.7,0.1-1.3,0.4-1.9c0.3-0.6,0.7-1,1.2-1.3c0.5-0.3,1.1-0.4,1.7-0.4
			c0.8,0,1.5,0.2,1.9,0.8C206.6,245,206.8,245.7,206.8,246.7z M204,245.3c-0.3,0-0.5,0.1-0.7,0.3c-0.2,0.2-0.4,0.4-0.5,0.7
			c-0.1,0.3-0.2,0.6-0.2,0.9c0,0.4,0.1,0.6,0.2,0.8c0.2,0.2,0.4,0.3,0.6,0.3c0.2,0,0.5-0.1,0.7-0.2c0.2-0.1,0.4-0.4,0.5-0.6
			c0.1-0.3,0.2-0.6,0.2-1c0-0.3-0.1-0.6-0.2-0.8C204.6,245.4,204.3,245.3,204,245.3z"/>
		<path class="st0" d="M210.3,250c0-0.8,0.1-1.6,0.4-2.4c0.2-0.8,0.6-1.5,1-2c0.4-0.6,1-1,1.6-1.3c0.6-0.3,1.3-0.4,2.2-0.4
			c0.5,0,1,0.1,1.4,0.2l-0.3,1.5c-0.3-0.1-0.7-0.2-1.2-0.2c-0.8,0-1.4,0.2-1.9,0.7s-0.9,1.1-1.1,2.1h0c0.5-0.7,1.1-1,1.9-1
			c0.6,0,1.1,0.2,1.5,0.6c0.3,0.4,0.5,1,0.5,1.7c0,0.7-0.1,1.3-0.4,1.9c-0.3,0.6-0.7,1-1.2,1.3c-0.5,0.3-1.1,0.4-1.7,0.4
			c-0.9,0-1.5-0.3-2-0.8C210.5,251.6,210.3,250.9,210.3,250z M213,251.4c0.4,0,0.7-0.2,1-0.6c0.3-0.4,0.4-0.9,0.4-1.4
			c0-0.3-0.1-0.5-0.2-0.7c-0.1-0.2-0.3-0.3-0.6-0.3c-0.2,0-0.5,0.1-0.7,0.2s-0.4,0.3-0.5,0.6c-0.1,0.2-0.2,0.6-0.2,1
			c0,0.4,0.1,0.7,0.2,0.9C212.5,251.3,212.7,251.4,213,251.4z"/>
		<path class="st0" d="M219.9,252.8l4.5-7.3h-3.8l0.3-1.6h6l-0.2,1.2l-4.6,7.7H219.9z"/>
	</g>
	<g>
		<path class="st0" d="M54.4,375h2.5L46,400h-0.2L35,375h2.5l6.7,16l1.8,4.4l1.7-4.4L54.4,375z"/>
		<path class="st0" d="M86.8,375v2H74.9v8.7H85v1.9H74.9v9.6h12.5v2H72.6V375H86.8z"/>
		<path class="st0" d="M103.5,375c1.5-0.1,4.3-0.2,5.9-0.2c5.4,0,8.3,2.3,8.3,6.9c0,4.1-2.1,6.2-4.8,7l7.8,10.4h-2.7l-7.5-10
			c-0.7,0.1-1.4,0.1-2.2,0.1c-0.9,0-1.9,0-2.7-0.2v10h-2.2V375z M105.8,387.3c0.8,0.1,2,0.2,3.1,0.2c3.5,0,6.6-1.3,6.6-5.6
			c0-2.6-1.1-5.1-6-5.1c-1.3,0-3.2,0.1-3.7,0.2V387.3z"/>
		<path class="st0" d="M136.2,375c2.6-0.1,4.6-0.2,6.4-0.2c5.6,0,8.1,2.1,8.1,6.4c0,2.8-1.6,4.5-4.6,5.1c3.4,0.3,5.7,2.3,5.7,6.1
			c0,5.6-3.9,7-8.9,7c-2.6,0-4.7-0.1-6.7-0.2V375z M138.4,385.6c1.2,0,2.7,0.1,3.6,0.1c3.6,0,6.4-1.2,6.4-4.3c0-3.6-2.6-4.6-5.8-4.6
			c-1.4,0-3.6,0.1-4.2,0.1V385.6z M138.4,397.4c1.3,0.1,2.9,0.2,4.6,0.2c4.1,0,6.4-1.4,6.4-5.2c0-3.2-1.5-5-7.3-5
			c-0.8,0-2.5,0-3.7,0.1V397.4z"/>
		<path class="st0" d="M171.1,375v24.2h-2.3V375H171.1z"/>
		<path class="st0" d="M203.6,375v2h-11.9v8.7h10.1v1.9h-10.1v9.6h12.5v2h-14.9V375H203.6z"/>
		<path class="st0" d="M220.3,375c1.5-0.1,4.3-0.2,5.9-0.2c5.4,0,8.3,2.3,8.3,6.9c0,4.1-2.1,6.2-4.8,7l7.8,10.4h-2.7l-7.5-10
			c-0.7,0.1-1.4,0.1-2.2,0.1c-0.9,0-1.9,0-2.7-0.2v10h-2.2V375z M222.5,387.3c0.8,0.1,2,0.2,3.1,0.2c3.5,0,6.6-1.3,6.6-5.6
			c0-2.6-1.1-5.1-6-5.1c-1.3,0-3.2,0.1-3.7,0.2V387.3z"/>
	</g>
	<g>
		<path class="st0" d="M93.2,100.3c-0.2,0-0.5,0-0.7-0.1c-0.9-0.4-1.3-1.4-0.9-2.3L134.7,1c0.3-0.6,0.9-1,1.6-1c0,0,0,0,0,0
			c0.7,0,1.3,0.4,1.6,1l36.6,83.1c0.4,0.9,0,1.9-0.9,2.3c-0.9,0.4-1.9,0-2.3-0.9l-35-79.5L94.8,99.3
			C94.5,99.9,93.9,100.3,93.2,100.3z"/>
	</g>
	<path class="st1" d="M134.8,237.4"/>
	<g>
		<path class="st2" d="M152.2,290L152.2,290l-32.1,0c-0.9,0-1.7-0.8-1.7-1.7v-24.5H96.2c-0.9,0-1.7-0.8-1.7-1.7v-27.4
			c0-0.9,0.8-1.7,1.7-1.7h22.2v-24.6c0-0.9,0.8-1.7,1.7-1.7h32.1c0.9,0,1.7,0.8,1.7,1.7V233h22.2c0.9,0,1.7,0.8,1.7,1.7v27.4
			c0,0.9-0.8,1.7-1.7,1.7h-22.2v24.5c0,0.5-0.2,0.9-0.5,1.2C153.1,289.8,152.7,290,152.2,290z M121.8,286.6l28.7,0v-24.5
			c0-0.9,0.8-1.7,1.7-1.7h22.2v-23.9h-22.2c-0.9,0-1.7-0.8-1.7-1.7v-24.6h-28.7v24.6c0,0.9-0.8,1.7-1.7,1.7H97.9v23.9h22.2
			c0.9,0,1.7,0.8,1.7,1.7V286.6z"/>
	</g>
	<g>
		<g>
			<g>
				<g>
					<path class="st0" d="M33.3,250H2.1c-0.6,0-1.1-0.3-1.5-0.8c-0.3-0.5-0.3-1.1-0.1-1.7L82.8,83.1c0.3-0.6,0.8-0.9,1.5-0.9
						c0.6,0,1.2,0.3,1.5,0.8l51.8,86c0.5,0.8,0.2,1.9-0.6,2.3c-0.8,0.5-1.9,0.2-2.4-0.6L84.5,87.5L4.9,246.6h28.4
						c0.9,0,1.7,0.8,1.7,1.7S34.2,250,33.3,250z"/>
				</g>
				<g>
					<path class="st3" d="M242.2,243.4"/>
				</g>
				<g>
					<path class="st3" d="M265.6,243.4"/>
				</g>
			</g>
		</g>
		<g>
			<path class="st0" d="M269.9,250h-30.7c-0.9,0-1.7-0.8-1.7-1.7s0.8-1.7,1.7-1.7h28.1L187.6,57.7l-49.9,112.9
				c-0.4,0.9-1.4,1.3-2.3,0.9c-0.9-0.4-1.3-1.4-0.9-2.3l51.5-116.5c0.3-0.6,0.9-1,1.6-1c0,0,0,0,0,0c0.7,0,1.3,0.4,1.6,1l82.3,194.9
				c0.2,0.5,0.2,1.1-0.2,1.6C271,249.7,270.5,250,269.9,250z"/>
		</g>
	</g>
	<g>
		<path class="st0" d="M51.4,247.7c0,1.1-0.2,2.1-0.6,2.9c-0.4,0.8-1,1.5-1.8,1.9s-1.7,0.7-2.8,0.7h-2.5l1.9-9h2.3
			c1.1,0,2,0.3,2.6,0.9C51.1,245.6,51.4,246.5,51.4,247.7z M46.3,251.9c0.7,0,1.4-0.2,1.9-0.5c0.5-0.4,1-0.8,1.2-1.5
			c0.3-0.6,0.4-1.4,0.4-2.2c0-0.8-0.2-1.3-0.5-1.7c-0.4-0.4-0.9-0.6-1.6-0.6h-0.9l-1.4,6.5H46.3z"/>
		<path class="st0" d="M54.9,253.3c-0.8,0-1.4-0.2-1.9-0.7c-0.5-0.5-0.7-1.1-0.7-1.9c0-0.8,0.2-1.6,0.5-2.3c0.3-0.7,0.7-1.2,1.3-1.6
			c0.5-0.4,1.1-0.6,1.8-0.6c0.7,0,1.2,0.1,1.5,0.4c0.4,0.3,0.5,0.7,0.5,1.3c0,0.7-0.3,1.3-1,1.7c-0.7,0.4-1.7,0.6-2.9,0.6h-0.3
			l0,0.2v0.2c0,0.5,0.1,0.8,0.3,1.1c0.2,0.3,0.6,0.4,1,0.4c0.3,0,0.6,0,0.9-0.1c0.3-0.1,0.6-0.2,1-0.4v1.1c-0.4,0.2-0.8,0.3-1.1,0.4
			C55.7,253.2,55.3,253.3,54.9,253.3z M55.9,247.3c-0.4,0-0.8,0.2-1.1,0.5c-0.3,0.4-0.6,0.8-0.7,1.4h0.2c0.8,0,1.4-0.1,1.8-0.3
			c0.4-0.2,0.7-0.5,0.7-0.9c0-0.2-0.1-0.4-0.2-0.5C56.3,247.4,56.1,247.3,55.9,247.3z"/>
		<path class="st0" d="M61.9,253.3c-0.7,0-1.3-0.4-1.7-1.1h-0.1c0,0.4-0.1,0.8-0.2,1.1l-0.6,2.8H58l2.1-9.8h1.1l-0.1,1.2h0.1
			c0.6-0.9,1.3-1.3,2.1-1.3c0.6,0,1,0.2,1.4,0.6s0.5,1,0.5,1.8c0,0.8-0.1,1.6-0.4,2.3c-0.3,0.7-0.7,1.3-1.2,1.7
			C63.1,253,62.5,253.3,61.9,253.3z M62.7,247.4c-0.3,0-0.7,0.2-1,0.5c-0.3,0.3-0.6,0.8-0.8,1.3c-0.2,0.5-0.3,1.1-0.3,1.7
			c0,0.4,0.1,0.7,0.3,0.9c0.2,0.2,0.5,0.3,0.8,0.3c0.3,0,0.7-0.2,1-0.5c0.3-0.3,0.5-0.7,0.7-1.3c0.2-0.5,0.3-1.1,0.3-1.7
			C63.7,247.8,63.4,247.4,62.7,247.4z"/>
		<path class="st0" d="M68.8,246.3l-0.8,3.7c-0.1,0.6-0.2,1-0.2,1.2c0,0.5,0.3,0.8,0.8,0.8c0.3,0,0.6-0.1,0.9-0.3
			c0.3-0.2,0.5-0.6,0.8-1c0.2-0.4,0.4-0.9,0.5-1.5l0.6-2.9h1.4l-1.4,6.8h-1.1l0.1-1.3h0c-0.3,0.5-0.7,0.8-1,1
			c-0.4,0.2-0.8,0.3-1.2,0.3c-0.5,0-1-0.2-1.3-0.5s-0.4-0.8-0.4-1.3c0-0.3,0-0.5,0.1-0.8c0-0.3,0.1-0.5,0.1-0.8l0.8-3.6H68.8z"/>
		<path class="st0" d="M74.9,253.1h-1.4l1.4-6.8h1.4L74.9,253.1z M75.2,244.7c0-0.3,0.1-0.5,0.2-0.7c0.2-0.2,0.4-0.3,0.7-0.3
			c0.2,0,0.4,0.1,0.5,0.2c0.1,0.1,0.2,0.3,0.2,0.5c0,0.3-0.1,0.5-0.2,0.7c-0.2,0.2-0.4,0.3-0.6,0.3c-0.2,0-0.4-0.1-0.5-0.2
			S75.2,244.9,75.2,244.7z"/>
		<path class="st0" d="M81.4,251c0,0.7-0.2,1.3-0.7,1.6c-0.5,0.4-1.2,0.6-2,0.6c-0.8,0-1.4-0.1-2-0.4v-1.2c0.6,0.4,1.3,0.6,1.9,0.6
			c0.4,0,0.7-0.1,1-0.2s0.4-0.4,0.4-0.7c0-0.2-0.1-0.4-0.2-0.5c-0.1-0.1-0.4-0.3-0.9-0.6c-0.5-0.3-0.9-0.6-1.1-0.8
			c-0.2-0.3-0.3-0.6-0.3-1c0-0.6,0.2-1.1,0.7-1.5c0.4-0.4,1-0.5,1.8-0.5c0.8,0,1.5,0.2,2.1,0.5l-0.5,1.1c-0.6-0.3-1.1-0.5-1.6-0.5
			c-0.3,0-0.5,0.1-0.7,0.2c-0.2,0.1-0.3,0.3-0.3,0.6c0,0.2,0.1,0.3,0.2,0.5s0.4,0.3,0.8,0.6c0.4,0.2,0.7,0.4,0.9,0.6
			c0.2,0.2,0.3,0.4,0.4,0.6C81.4,250.5,81.4,250.8,81.4,251z"/>
	</g>
	<g>
		<path class="st2" d="M0.4,310.8c2.2-0.1,4.8-0.1,6.7-0.1c5.5,0,8.9,2.2,8.9,7.5c0,5.2-3.5,7.4-8.6,7.4c-1.4,0-2.6-0.1-3.7-0.1v8.5
			H0.4V310.8z M3.6,322.6c0.8,0.1,2.2,0.1,3.7,0.1c2.8,0,5.4-1,5.4-4.6c0-3.6-2.3-4.6-5.5-4.6c-1.5,0-3,0.1-3.6,0.1V322.6z"/>
		<path class="st2" d="M49.4,310.8v23.1H46v-10.4H34.5v10.4h-3.4v-23.1h3.4v9.7H46v-9.7H49.4z"/>
		<path class="st2" d="M74.6,310h0.2l10.9,23.9h-3.7l-2.2-4.9H69.4l-2.1,4.9h-3.7L74.6,310z M78.7,326.2l-2.8-6.6
			c-0.2-0.5-1-2.4-1.2-3.1h-0.2c-0.2,0.7-1,2.5-1.2,3.1l-2.9,6.6H78.7z"/>
		<path class="st2" d="M100,310.8c1.6,0,4.6-0.1,6.4-0.1c5.7,0,8.3,2.7,8.3,6.6c0,3.9-1.8,5.6-4.2,6.7l7.2,10h-3.8l-6.6-9.3
			c-0.6,0.1-1.2,0.1-1.8,0.1c-0.7,0-1.5,0-2.1-0.1v9.4H100V310.8z M103.3,321.8c0.6,0.1,1.8,0.2,2.9,0.2c3,0,5.3-1.3,5.3-4.5
			c0-2.2-1.1-4.1-4.9-4.1c-1,0-2.7,0.1-3.2,0.1V321.8z"/>
		<path class="st2" d="M131.5,310.1h0.3l10.9,15.1l10.9-15.1h0.3v23.7h-3.3v-9l0.2-5.4l-2.8,4.1l-5.2,6.6h-0.2l-5.2-6.7l-2.8-4
			l0.2,5.4v9.1h-3.3V310.1z"/>
		<path class="st2" d="M179.1,310h0.2l10.9,23.9h-3.7l-2.2-4.9h-10.5l-2.1,4.9h-3.7L179.1,310z M183.2,326.2l-2.8-6.6
			c-0.2-0.5-1-2.4-1.2-3.1h-0.2c-0.2,0.7-1,2.5-1.2,3.1l-2.9,6.6H183.2z"/>
		<path class="st2" d="M222.2,330.4c-2,2.3-4.9,4-8.8,4c-6.3,0-11.2-4.5-11.2-12.1c0-7.4,5-12,11.2-12c3.9,0,6.7,1.5,8.8,3.8
			l-2.5,2.1c-1.4-1.8-3.3-3.1-6.3-3.1c-4.5,0-7.7,3.7-7.7,9.1s3.2,9.3,7.7,9.3c3.1,0,5-1.5,6.4-3.2L222.2,330.4z"/>
		<path class="st2" d="M240.4,310.8v23.1H237v-23.1H240.4z"/>
		<path class="st2" d="M271,310.8v2.9h-10.6v6.8h8.7v2.9h-8.7v7.6h11.2v2.9H257v-23.1H271z"/>
	</g>
	<g>
		<path class="st2" d="M3.4,343.2v15.2h-3v-15.2H3.4z"/>
		<path class="st2" d="M26.7,343.2v15.7h-0.3l-8.9-8.8l-0.8-0.9l0.1,1.1v8.2h-2.9v-15.7H14l8.8,8.6l1,1.1l-0.1-1.4v-7.9H26.7z"/>
		<path class="st2" d="M47.5,343.2v2.5h-4.3v12.7h-2.9v-12.7h-4.4v-2.5H47.5z"/>
		<path class="st2" d="M66,343.2v2.5h-6.5v3.5h5.2v2.5h-5.2v4.1h6.9v2.5h-9.8v-15.2H66z"/>
		<path class="st2" d="M75.8,343.2c1.2,0,3.3-0.1,4.7-0.1c4.1,0,5.7,2.1,5.7,4.5c0,2.6-1.1,3.5-2.5,4.3l4.5,6.5h-3.3l-4.1-6
			c-0.4,0-0.8,0-1.1,0c-0.4,0-0.8,0-1.1-0.1v6h-2.8V343.2z M78.7,350.1c0.3,0,1.1,0.1,1.9,0.1c1.8,0,2.8-0.9,2.8-2.4
			c0-1.3-0.8-2.3-2.7-2.3c-0.5,0-1.6,0-2,0.1V350.1z"/>
		<path class="st2" d="M109.7,343.2v15.7h-0.3l-8.9-8.8l-0.8-0.9l0.1,1.1v8.2h-2.9v-15.7H97l8.8,8.6l1,1.1l-0.1-1.4v-7.9H109.7z"/>
		<path class="st2" d="M126.1,342.7h0.2l7.5,15.7h-3.3l-1.2-2.7h-6.5l-1.1,2.7h-3.2L126.1,342.7z M128.3,353.4l-2.1-5l-2.3,5H128.3z
			"/>
		<path class="st2" d="M150.5,343.2v2.5h-4.3v12.7h-2.9v-12.7h-4.4v-2.5H150.5z"/>
		<path class="st2" d="M162.6,343.2v15.2h-3v-15.2H162.6z"/>
		<path class="st2" d="M188,350.8c0,4.8-3.3,8-7.8,8c-4.5,0-7.8-3.2-7.8-8c0-4.8,3.3-7.9,7.8-7.9C184.7,342.9,188,346,188,350.8z
			 M175.6,350.8c0,3.1,1.7,5.5,4.7,5.5c3,0,4.7-2.4,4.7-5.5c0-3.1-1.7-5.4-4.7-5.4C177.3,345.3,175.6,347.7,175.6,350.8z"/>
		<path class="st2" d="M210.7,343.2v15.7h-0.3l-8.9-8.8l-0.8-0.9l0.1,1.1v8.2h-2.9v-15.7h0.2l8.8,8.6l1,1.1l-0.1-1.4v-7.9H210.7z"/>
		<path class="st2" d="M227.1,342.7h0.2l7.5,15.7h-3.3l-1.2-2.7h-6.5l-1.1,2.7h-3.2L227.1,342.7z M229.3,353.4l-2.1-5l-2.3,5H229.3z
			"/>
		<path class="st2" d="M246.7,343.2v12.7h5.8v2.5h-8.7v-15.2H246.7z"/>
		<path class="st2" d="M271.2,343.2v2.5h-6.5v3.5h5.2v2.5h-5.2v4.1h6.9v2.5h-9.8v-15.2H271.2z"/>
	</g>
</g>
</svg>
